<?xml version="1.0" encoding="UTF-8"?>
<svg width="461px" height="65px" viewBox="0 0 461 65" version="1.1" xmlns="http://www.w3.org/2000/svg" xmlns:xlink="http://www.w3.org/1999/xlink">
    <!-- Generator: Sketch 52.6 (67491) - http://www.bohemiancoding.com/sketch -->
    <title>Ant Design Vue Copy 5</title>
    <desc>Created with Sketch.</desc>
    <g id="飞机稿" stroke="none" stroke-width="1" fill="none" fill-rule="evenodd">
        <g id="Ant-Design-Vue" transform="translate(-128.000000, -32.000000)" fill="#000000">
            <path d="M165.019531,82.7304688 L159.921875,68.2109375 L139.742188,68.2109375 L134.644531,82.7304688 L128,82.7304688 L146.703125,32 L152.960938,32 L171.664062,82.7304688 L165.019531,82.7304688 Z M149.726562,39.6992188 L141.605469,62.8320312 L158.058594,62.8320312 L149.9375,39.6992188 L149.726562,39.6992188 Z M176.515625,82.7304688 L176.515625,46.1679688 L182.28125,46.1679688 L182.28125,52.0039062 L182.421875,52.0039062 C184.460938,48.0664062 188.363281,45.5351562 194.023438,45.5351562 C202.039062,45.5351562 206.679688,50.703125 206.679688,59 L206.679688,82.7304688 L200.5625,82.7304688 L200.5625,60.0898438 C200.5625,54.1835938 197.785156,50.9492188 192.160156,50.9492188 C186.394531,50.9492188 182.632812,55.0273438 182.632812,61.2148438 L182.632812,82.7304688 L176.515625,82.7304688 Z M216.417969,37.34375 L222.535156,37.34375 L222.535156,46.1679688 L229.636719,46.1679688 L229.636719,51.1953125 L222.535156,51.1953125 L222.535156,72.921875 C222.535156,76.2617188 223.941406,77.7734375 227.070312,77.7734375 C227.773438,77.7734375 229.179688,77.6679688 229.601562,77.5976562 L229.601562,82.7304688 C228.863281,82.90625 227.175781,83.0117188 225.734375,83.0117188 C219.019531,83.0117188 216.417969,80.2695312 216.417969,73.2382812 L216.417969,51.1953125 L210.96875,51.1953125 L210.96875,46.1679688 L216.417969,46.1679688 L216.417969,37.34375 Z M251.855469,32 L268.90625,32 C283.953125,32 292.847656,41.3867188 292.847656,57.3476562 C292.847656,73.34375 283.988281,82.7304688 268.90625,82.7304688 L251.855469,82.7304688 L251.855469,32 Z M258.183594,37.6953125 L258.183594,77.0351562 L268.484375,77.0351562 C279.980469,77.0351562 286.378906,70.0039062 286.378906,57.4179688 C286.378906,44.7265625 280.015625,37.6953125 268.484375,37.6953125 L258.183594,37.6953125 Z M314.398438,50.84375 C308.667969,50.84375 304.660156,55.2382812 304.273438,61.3203125 L324.136719,61.3203125 C323.996094,55.203125 320.164062,50.84375 314.398438,50.84375 Z M323.996094,72.2539062 L330.007812,72.2539062 C328.953125,78.6523438 322.765625,83.3632812 314.785156,83.3632812 C304.308594,83.3632812 297.945312,76.0859375 297.945312,64.5898438 C297.945312,53.234375 304.414062,45.5351562 314.503906,45.5351562 C324.382812,45.5351562 330.464844,52.7070312 330.464844,63.78125 L330.464844,66.1015625 L304.238281,66.1015625 L304.238281,66.453125 C304.238281,73.4492188 308.351562,78.0546875 314.925781,78.0546875 C319.566406,78.0546875 322.976562,75.6992188 323.996094,72.2539062 Z M335.984375,56.2578125 C335.984375,50 341.574219,45.5351562 349.625,45.5351562 C357.183594,45.5351562 362.738281,50.0351562 363.019531,56.2226562 L357.183594,56.2226562 C356.761719,52.7070312 353.914062,50.5273438 349.414062,50.5273438 C344.949219,50.5273438 341.996094,52.7421875 341.996094,55.9414062 C341.996094,58.4726562 343.929688,60.1601562 348.078125,61.2148438 L353.738281,62.5859375 C361.121094,64.4492188 363.792969,67.1210938 363.792969,72.5 C363.792969,78.8632812 357.78125,83.3632812 349.238281,83.3632812 C341.222656,83.3632812 335.632812,79.0039062 335,72.5351562 L341.117188,72.5351562 C341.785156,76.3320312 344.667969,78.3710938 349.625,78.3710938 C354.582031,78.3710938 357.640625,76.2617188 357.640625,72.9570312 C357.640625,70.3554688 356.128906,68.9492188 352.015625,67.859375 L345.582031,66.2070312 C339.148438,64.5546875 335.984375,61.25 335.984375,56.2578125 Z M370.4375,82.7304688 L370.4375,46.1679688 L376.554688,46.1679688 L376.554688,82.7304688 L370.4375,82.7304688 Z M373.496094,40.015625 C371.421875,40.015625 369.699219,38.2929688 369.699219,36.21875 C369.699219,34.109375 371.421875,32.421875 373.496094,32.421875 C375.605469,32.421875 377.328125,34.109375 377.328125,36.21875 C377.328125,38.2929688 375.605469,40.015625 373.496094,40.015625 Z M399.6875,77.6328125 C406.050781,77.6328125 410.304688,72.359375 410.304688,64.3085938 C410.304688,56.2578125 406.050781,50.9140625 399.6875,50.9140625 C393.394531,50.9140625 389.28125,56.1171875 389.28125,64.3085938 C389.28125,72.5 393.394531,77.6328125 399.6875,77.6328125 Z M399.898438,96.5117188 C391.847656,96.5117188 385.484375,91.9765625 384.464844,85.7539062 L390.757812,85.7539062 C391.953125,89.09375 395.574219,91.3085938 400.144531,91.3085938 C406.472656,91.3085938 410.304688,87.6523438 410.304688,82.203125 L410.304688,76.4375 L410.164062,76.4375 C407.914062,80.4101562 403.589844,83.0117188 398.457031,83.0117188 C389.140625,83.0117188 383.023438,75.6640625 383.023438,64.3085938 C383.023438,52.8476562 389.140625,45.5351562 398.597656,45.5351562 C403.765625,45.5351562 408.054688,48.0664062 410.480469,52.3203125 L410.585938,52.3203125 L410.585938,46.1679688 L416.421875,46.1679688 L416.421875,81.9921875 C416.421875,90.7109375 409.988281,96.5117188 399.898438,96.5117188 Z M424.367188,82.7304688 L424.367188,46.1679688 L430.132812,46.1679688 L430.132812,52.0039062 L430.273438,52.0039062 C432.3125,48.0664062 436.214844,45.5351562 441.875,45.5351562 C449.890625,45.5351562 454.53125,50.703125 454.53125,59 L454.53125,82.7304688 L448.414062,82.7304688 L448.414062,60.0898438 C448.414062,54.1835938 445.636719,50.9492188 440.011719,50.9492188 C434.246094,50.9492188 430.484375,55.0273438 430.484375,61.2148438 L430.484375,82.7304688 L424.367188,82.7304688 Z M498.933594,82.7304688 L492.675781,82.7304688 L473.972656,32 L480.617188,32 L495.699219,75.03125 L495.910156,75.03125 L510.992188,32 L517.636719,32 L498.933594,82.7304688 Z M549.699219,46.1679688 L549.699219,82.7304688 L543.898438,82.7304688 L543.898438,76.7890625 L543.757812,76.7890625 C541.578125,81.0078125 537.78125,83.3632812 532.15625,83.3632812 C524.175781,83.3632812 519.5,78.1953125 519.5,69.8984375 L519.5,46.1679688 L525.617188,46.1679688 L525.617188,68.8085938 C525.617188,74.75 528.394531,77.9492188 534.054688,77.9492188 C539.996094,77.9492188 543.582031,73.8710938 543.582031,67.6484375 L543.582031,46.1679688 L549.699219,46.1679688 Z M572.269531,50.84375 C566.539062,50.84375 562.53125,55.2382812 562.144531,61.3203125 L582.007812,61.3203125 C581.867188,55.203125 578.035156,50.84375 572.269531,50.84375 Z M581.867188,72.2539062 L587.878906,72.2539062 C586.824219,78.6523438 580.636719,83.3632812 572.65625,83.3632812 C562.179688,83.3632812 555.816406,76.0859375 555.816406,64.5898438 C555.816406,53.234375 562.285156,45.5351562 572.375,45.5351562 C582.253906,45.5351562 588.335938,52.7070312 588.335938,63.78125 L588.335938,66.1015625 L562.109375,66.1015625 L562.109375,66.453125 C562.109375,73.4492188 566.222656,78.0546875 572.796875,78.0546875 C577.4375,78.0546875 580.847656,75.6992188 581.867188,72.2539062 Z" id="Ant-Design-Vue-Copy-5"></path>
        </g>
    </g>
</svg>