<svg width="138" height="83" xmlns="http://www.w3.org/2000/svg" xmlns:xlink="http://www.w3.org/1999/xlink"><defs><path d="M20.121 17.897a8.766 8.766 0 0 0-1.889-2.8 8.804 8.804 0 0 0-2.8-1.89c-.01-.005-.02-.007-.029-.012A5.811 5.811 0 0 0 12 2.672a5.811 5.811 0 0 0-3.403 10.526l-.028.011a8.728 8.728 0 0 0-2.801 1.89 8.804 8.804 0 0 0-1.89 2.8 8.713 8.713 0 0 0-.69 3.237.188.188 0 0 0 .187.192h1.406a.187.187 0 0 0 .188-.183 6.987 6.987 0 0 1 2.058-4.788A6.985 6.985 0 0 1 12 14.297c1.88 0 3.645.731 4.973 2.06a6.987 6.987 0 0 1 2.058 4.788.186.186 0 0 0 .188.183h1.406c.105 0 .19-.087.188-.192a8.735 8.735 0 0 0-.692-3.24zM12 12.516a4.005 4.005 0 0 1-2.85-1.182 4.005 4.005 0 0 1-1.181-2.85 4.01 4.01 0 0 1 1.181-2.85A4.005 4.005 0 0 1 12 4.454c1.076 0 2.088.419 2.85 1.18a4.005 4.005 0 0 1 1.181 2.85c0 1.076-.42 2.089-1.181 2.85A4.005 4.005 0 0 1 12 12.516z" id="b"/><filter x="-93.6%" y="-88.4%" width="287.2%" height="276.9%" filterUnits="objectBoundingBox" id="a"><feOffset in="SourceAlpha" result="shadowOffsetOuter1"/><feGaussianBlur stdDeviation="5.5" in="shadowOffsetOuter1" result="shadowBlurOuter1"/><feColorMatrix values="0 0 0 0 0 0 0 0 0 0 0 0 0 0 0 0 0 0 0.06 0" in="shadowBlurOuter1"/></filter><path d="M15.09 13.423a6.574 6.574 0 0 0-1.416-2.1 6.603 6.603 0 0 0-2.1-1.418c-.008-.003-.015-.005-.022-.009A4.359 4.359 0 1 0 4.64 6.363c0 1.454.713 2.742 1.808 3.535l-.021.009a6.546 6.546 0 0 0-2.101 1.417 6.603 6.603 0 0 0-1.935 4.528.14.14 0 0 0 .14.144h1.055a.14.14 0 0 0 .14-.137 5.24 5.24 0 0 1 1.544-3.591A5.239 5.239 0 0 1 9 10.723c1.41 0 2.733.548 3.73 1.545a5.24 5.24 0 0 1 1.543 3.591.14.14 0 0 0 .141.137h1.055a.14.14 0 0 0 .14-.144 6.551 6.551 0 0 0-.518-2.43zM9 9.387A3.004 3.004 0 0 1 6.862 8.5a3.004 3.004 0 0 1-.885-2.138c0-.807.314-1.566.885-2.137A3.004 3.004 0 0 1 9 3.34c.807 0 1.566.314 2.137.886.572.571.886 1.33.886 2.137 0 .807-.314 1.566-.886 2.138A3.004 3.004 0 0 1 9 9.387z" id="d"/><filter x="-124.8%" y="-117.9%" width="349.6%" height="335.8%" filterUnits="objectBoundingBox" id="c"><feOffset in="SourceAlpha" result="shadowOffsetOuter1"/><feGaussianBlur stdDeviation="5.5" in="shadowOffsetOuter1" result="shadowBlurOuter1"/><feColorMatrix values="0 0 0 0 0 0 0 0 0 0 0 0 0 0 0 0 0 0 0.06 0" in="shadowBlurOuter1"/></filter><path d="M10.06 8.948a4.383 4.383 0 0 0-.944-1.4 4.402 4.402 0 0 0-1.4-.944l-.014-.006a2.906 2.906 0 1 0-3.403.001l-.015.006a4.357 4.357 0 0 0-1.4.944 4.402 4.402 0 0 0-1.29 3.019.094.094 0 0 0 .093.096h.704a.094.094 0 0 0 .093-.091 3.494 3.494 0 0 1 1.03-2.394A3.492 3.492 0 0 1 6 7.149c.94 0 1.822.365 2.487 1.03a3.494 3.494 0 0 1 1.029 2.394.093.093 0 0 0 .093.091h.704a.094.094 0 0 0 .093-.096 4.367 4.367 0 0 0-.345-1.62zM6 6.258c-.538 0-1.044-.21-1.425-.59a2.01 2.01 0 0 1-.59-1.426c0-.538.21-1.044.59-1.425.38-.38.887-.59 1.425-.59s1.044.21 1.425.59c.38.381.59.887.59 1.425s-.21 1.044-.59 1.425-.887.59-1.425.59z" id="f"/><filter x="-187.2%" y="-176.9%" width="474.5%" height="453.8%" filterUnits="objectBoundingBox" id="e"><feOffset in="SourceAlpha" result="shadowOffsetOuter1"/><feGaussianBlur stdDeviation="5.5" in="shadowOffsetOuter1" result="shadowBlurOuter1"/><feColorMatrix values="0 0 0 0 0 0 0 0 0 0 0 0 0 0 0 0 0 0 0.06 0" in="shadowBlurOuter1"/></filter><path d="M12.576 11.186a5.479 5.479 0 0 0-1.181-1.75 5.502 5.502 0 0 0-1.75-1.182l-.018-.007a3.632 3.632 0 1 0-4.254.001l-.018.008a5.455 5.455 0 0 0-1.75 1.18 5.502 5.502 0 0 0-1.613 3.774.117.117 0 0 0 .117.12h.88a.117.117 0 0 0 .116-.114 4.371 4.371 0 0 1 1.287-2.993A4.365 4.365 0 0 1 7.5 8.936c1.175 0 2.278.457 3.108 1.287a4.367 4.367 0 0 1 1.287 2.993.116.116 0 0 0 .117.114h.879a.117.117 0 0 0 .117-.12 5.46 5.46 0 0 0-.432-2.024zM7.5 7.822a2.503 2.503 0 0 1-1.781-.738 2.503 2.503 0 0 1-.739-1.781c0-.673.263-1.305.739-1.782A2.503 2.503 0 0 1 7.5 2.783c.672 0 1.305.262 1.781.738.476.477.739 1.11.739 1.782 0 .672-.263 1.305-.739 1.781a2.503 2.503 0 0 1-1.781.738z" id="h"/><filter x="-149.8%" y="-141.5%" width="399.6%" height="383%" filterUnits="objectBoundingBox" id="g"><feOffset in="SourceAlpha" result="shadowOffsetOuter1"/><feGaussianBlur stdDeviation="5.5" in="shadowOffsetOuter1" result="shadowBlurOuter1"/><feColorMatrix values="0 0 0 0 0 0 0 0 0 0 0 0 0 0 0 0 0 0 0.06 0" in="shadowBlurOuter1"/></filter><path d="M20.121 17.897a8.766 8.766 0 0 0-1.889-2.8 8.804 8.804 0 0 0-2.8-1.89c-.01-.005-.02-.007-.029-.012A5.811 5.811 0 0 0 12 2.672a5.811 5.811 0 0 0-3.403 10.526l-.028.011a8.728 8.728 0 0 0-2.801 1.89 8.804 8.804 0 0 0-1.89 2.8 8.713 8.713 0 0 0-.69 3.237.188.188 0 0 0 .187.192h1.406a.187.187 0 0 0 .188-.183 6.987 6.987 0 0 1 2.058-4.788A6.985 6.985 0 0 1 12 14.297c1.88 0 3.645.731 4.973 2.06a6.987 6.987 0 0 1 2.058 4.788.186.186 0 0 0 .188.183h1.406c.105 0 .19-.087.188-.192a8.735 8.735 0 0 0-.692-3.24zM12 12.516a4.005 4.005 0 0 1-2.85-1.182 4.005 4.005 0 0 1-1.181-2.85 4.01 4.01 0 0 1 1.181-2.85A4.005 4.005 0 0 1 12 4.454c1.076 0 2.088.419 2.85 1.18a4.005 4.005 0 0 1 1.181 2.85c0 1.076-.42 2.089-1.181 2.85A4.005 4.005 0 0 1 12 12.516z" id="j"/><filter x="-93.6%" y="-88.4%" width="287.2%" height="276.9%" filterUnits="objectBoundingBox" id="i"><feOffset in="SourceAlpha" result="shadowOffsetOuter1"/><feGaussianBlur stdDeviation="5.5" in="shadowOffsetOuter1" result="shadowBlurOuter1"/><feColorMatrix values="0 0 0 0 0 0 0 0 0 0 0 0 0 0 0 0 0 0 0.06 0" in="shadowBlurOuter1"/></filter><path d="M15.09 13.423a6.574 6.574 0 0 0-1.416-2.1 6.603 6.603 0 0 0-2.1-1.418c-.008-.003-.015-.005-.022-.009A4.359 4.359 0 1 0 4.64 6.363c0 1.454.713 2.742 1.808 3.535l-.021.009a6.546 6.546 0 0 0-2.101 1.417 6.603 6.603 0 0 0-1.935 4.528.14.14 0 0 0 .14.144h1.055a.14.14 0 0 0 .14-.137 5.24 5.24 0 0 1 1.544-3.591A5.239 5.239 0 0 1 9 10.723c1.41 0 2.733.548 3.73 1.545a5.24 5.24 0 0 1 1.543 3.591.14.14 0 0 0 .141.137h1.055a.14.14 0 0 0 .14-.144 6.551 6.551 0 0 0-.518-2.43zM9 9.387A3.004 3.004 0 0 1 6.862 8.5a3.004 3.004 0 0 1-.885-2.138c0-.807.314-1.566.885-2.137A3.004 3.004 0 0 1 9 3.34c.807 0 1.566.314 2.137.886.572.571.886 1.33.886 2.137 0 .807-.314 1.566-.886 2.138A3.004 3.004 0 0 1 9 9.387z" id="l"/><filter x="-124.8%" y="-117.9%" width="349.6%" height="335.8%" filterUnits="objectBoundingBox" id="k"><feOffset in="SourceAlpha" result="shadowOffsetOuter1"/><feGaussianBlur stdDeviation="5.5" in="shadowOffsetOuter1" result="shadowBlurOuter1"/><feColorMatrix values="0 0 0 0 0 0 0 0 0 0 0 0 0 0 0 0 0 0 0.06 0" in="shadowBlurOuter1"/></filter><path d="M12.576 11.186a5.479 5.479 0 0 0-1.181-1.75 5.502 5.502 0 0 0-1.75-1.182l-.018-.007a3.632 3.632 0 1 0-4.254.001l-.018.008a5.455 5.455 0 0 0-1.75 1.18 5.502 5.502 0 0 0-1.613 3.774.117.117 0 0 0 .117.12h.88a.117.117 0 0 0 .116-.114 4.371 4.371 0 0 1 1.287-2.993A4.365 4.365 0 0 1 7.5 8.936c1.175 0 2.278.457 3.108 1.287a4.367 4.367 0 0 1 1.287 2.993.116.116 0 0 0 .117.114h.879a.117.117 0 0 0 .117-.12 5.46 5.46 0 0 0-.432-2.024zM7.5 7.822a2.503 2.503 0 0 1-1.781-.738 2.503 2.503 0 0 1-.739-1.781c0-.673.263-1.305.739-1.782A2.503 2.503 0 0 1 7.5 2.783c.672 0 1.305.262 1.781.738.476.477.739 1.11.739 1.782 0 .672-.263 1.305-.739 1.781a2.503 2.503 0 0 1-1.781.738z" id="n"/><filter x="-149.8%" y="-141.5%" width="399.6%" height="383%" filterUnits="objectBoundingBox" id="m"><feOffset in="SourceAlpha" result="shadowOffsetOuter1"/><feGaussianBlur stdDeviation="5.5" in="shadowOffsetOuter1" result="shadowBlurOuter1"/><feColorMatrix values="0 0 0 0 0 0 0 0 0 0 0 0 0 0 0 0 0 0 0.06 0" in="shadowBlurOuter1"/></filter><path d="M10.06 8.948a4.383 4.383 0 0 0-.944-1.4 4.402 4.402 0 0 0-1.4-.944l-.014-.006a2.906 2.906 0 1 0-3.403.001l-.015.006a4.357 4.357 0 0 0-1.4.944 4.402 4.402 0 0 0-1.29 3.019.094.094 0 0 0 .093.096h.704a.094.094 0 0 0 .093-.091 3.494 3.494 0 0 1 1.03-2.394A3.492 3.492 0 0 1 6 7.149c.94 0 1.822.365 2.487 1.03a3.494 3.494 0 0 1 1.029 2.394.093.093 0 0 0 .093.091h.704a.094.094 0 0 0 .093-.096 4.367 4.367 0 0 0-.345-1.62zM6 6.258c-.538 0-1.044-.21-1.425-.59a2.01 2.01 0 0 1-.59-1.426c0-.538.21-1.044.59-1.425.38-.38.887-.59 1.425-.59s1.044.21 1.425.59c.38.381.59.887.59 1.425s-.21 1.044-.59 1.425-.887.59-1.425.59z" id="p"/><filter x="-187.2%" y="-176.9%" width="474.5%" height="453.8%" filterUnits="objectBoundingBox" id="o"><feOffset in="SourceAlpha" result="shadowOffsetOuter1"/><feGaussianBlur stdDeviation="5.5" in="shadowOffsetOuter1" result="shadowBlurOuter1"/><feColorMatrix values="0 0 0 0 0 0 0 0 0 0 0 0 0 0 0 0 0 0 0.06 0" in="shadowBlurOuter1"/></filter></defs><g fill="none" fill-rule="evenodd"><g transform="translate(3 4)"><circle fill-opacity=".25" fill="#000" cx="16" cy="16" r="16"/><g fill-rule="nonzero" transform="translate(4 4)"><use fill="#000" filter="url(#a)" xlink:href="#b"/><use fill="#FFF" xlink:href="#b"/></g></g><g transform="translate(47 8)"><circle fill-opacity=".25" fill="#000" cx="12" cy="12" r="12"/><g fill-rule="nonzero" transform="translate(3 3)"><use fill="#000" filter="url(#c)" xlink:href="#d"/><use fill="#FFF" xlink:href="#d"/></g></g><g transform="translate(115 12)"><circle fill-opacity=".25" fill="#000" cx="8" cy="8" r="8"/><g fill-rule="nonzero" transform="translate(2 2)"><use fill="#000" filter="url(#e)" xlink:href="#f"/><use fill="#FFF" xlink:href="#f"/></g></g><g transform="translate(83 10)"><circle fill-opacity=".25" fill="#000" cx="10" cy="10" r="10"/><g fill-rule="nonzero" transform="translate(2.5 2.5)"><use fill="#000" filter="url(#g)" xlink:href="#h"/><use fill="#FFF" xlink:href="#h"/></g></g><g transform="translate(3 48)"><rect fill-opacity=".25" fill="#000" width="32" height="32" rx="2"/><g fill-rule="nonzero" transform="translate(4 4)"><use fill="#000" filter="url(#i)" xlink:href="#j"/><use fill="#FFF" xlink:href="#j"/></g></g><g transform="translate(47 52)"><rect fill-opacity=".25" fill="#000" width="24" height="24" rx="1.5"/><g fill-rule="nonzero" transform="translate(3 3)"><use fill="#000" filter="url(#k)" xlink:href="#l"/><use fill="#FFF" xlink:href="#l"/></g></g><g transform="translate(83 54)"><rect fill-opacity=".25" fill="#000" width="20" height="20" rx="1.25"/><g fill-rule="nonzero" transform="translate(2.5 2.5)"><use fill="#000" filter="url(#m)" xlink:href="#n"/><use fill="#FFF" xlink:href="#n"/></g></g><g transform="translate(115 56)"><rect fill-opacity=".25" fill="#000" width="16" height="16" rx="1"/><g fill-rule="nonzero" transform="translate(2 2)"><use fill="#000" filter="url(#o)" xlink:href="#p"/><use fill="#FFF" xlink:href="#p"/></g></g></g></svg>