<?xml version="1.0" encoding="UTF-8"?>
<svg width="104px" height="40px" viewBox="0 0 104 40" version="1.1" xmlns="http://www.w3.org/2000/svg" xmlns:xlink="http://www.w3.org/1999/xlink">
    <title>BackTop</title>
    <g id="页面-1" stroke="none" stroke-width="1" fill="none" fill-rule="evenodd">
        <g id="Ant-Design-组件缩略图" transform="translate(-132.000000, -824.000000)" fill-rule="nonzero">
            <g id="BackTop" transform="translate(132.000000, 824.000000)">
                <g id="6.Other/BackTop/Circle#">
                    <circle id="Oval-3" fill="#000000" opacity="0.45" cx="20" cy="20" r="20"></circle>
                    <path d="M19.6335026,23.8448109 C19.8285365,24.0402187 20.1448125,24.0402551 20.3398828,23.8448109 L25.2800234,18.8954897 C25.6704375,18.504328 25.5390052,18.1875171 24.9867891,18.1875171 L21.986651,18.1875171 L21.986651,12.9999089 C21.986651,12.4475809 21.5390885,12 20.987,12 L18.9863672,12 C18.4343516,12 17.9866797,12.4476538 17.9866797,12.9998724 L17.9866797,18.1875171 L14.9866146,18.1875171 C14.4343255,18.1875171 14.3030755,18.5045103 14.693362,18.8954897 L19.6335208,23.8448292 L19.6335026,23.8448109 Z M26.0001849,26 L13.9998151,26 C13.4479635,26 13,26.4477267 13,27 C13,27.5524009 13.4476172,28 13.9998151,28 L26.0001849,28 C26.552,28 27,27.5522733 27,27 C27,26.4475991 26.5523828,26 26.0001849,26 Z" id="Shape-Copy-2" fill="#FFFFFF" transform="translate(20.000000, 20.000000) scale(1, -1) translate(-20.000000, -20.000000) "></path>
                </g>
                <g id="6.Other/BackTop/Square" transform="translate(64.000000, 0.000000)">
                    <path d="M2,3.55271368e-15 L38,3.55271368e-15 C39.1045695,3.34980755e-15 40,0.8954305 40,2 L40,38 C40,39.1045695 39.1045695,40 38,40 L2,40 C0.8954305,40 3.68798443e-15,39.1045695 3.55271368e-15,38 L3.55271368e-15,2 C3.41744293e-15,0.8954305 0.8954305,3.7556198e-15 2,3.55271368e-15 Z" id="Rectangle-3-Copy-41" fill="#000000" opacity="0.45"></path>
                    <path d="M19.5519232,23.8166565 C19.7993395,24.0610917 20.2005615,24.0611373 20.4480242,23.8166565 L26.7149962,17.6255579 C27.2102683,17.1362543 27.0435357,16.739956 26.3430044,16.739956 L22.5370842,16.739956 L22.5370842,10.2507845 C22.5370842,9.55987824 21.9693146,9 21.2689452,9 L18.730979,9 C18.0307021,9 17.4627937,9.55996942 17.4627937,10.250739 L17.4627937,16.739956 L13.656966,16.739956 C12.9563422,16.739956 12.7898409,17.1364822 13.2849511,17.6255579 L19.5519463,23.8166793 L19.5519232,23.8166565 Z M27.7145234,27 L12.2854766,27 C11.5759531,27 11,27.67159 11,28.5 C11,29.3286014 11.5755078,30 12.2854766,30 L27.7145234,30 C28.424,30 29,29.32841 29,28.5 C29,27.6713986 28.4244922,27 27.7145234,27 Z" id="Shape-Copy" fill="#FFFFFF" transform="translate(20.000000, 19.500000) scale(1, -1) translate(-20.000000, -19.500000) "></path>
                </g>
            </g>
        </g>
    </g>
</svg>