<?xml version="1.0" encoding="UTF-8"?>
<svg width="150px" height="102px" viewBox="0 0 150 102" version="1.1" xmlns="http://www.w3.org/2000/svg" xmlns:xlink="http://www.w3.org/1999/xlink">
    <title>Collapse</title>
    <g id="页面-1" stroke="none" stroke-width="1" fill="none" fill-rule="evenodd">
        <g id="Ant-Design-组件缩略图" transform="translate(-1548.000000, -563.000000)">
            <g id="Collapse" transform="translate(1548.000000, 563.000000)">
                <path d="M2,0 L148,0 C149.104569,-2.02906125e-16 150,0.8954305 150,2 L150,24 L150,24 L0,24 L0,2 C-1.3527075e-16,0.8954305 0.8954305,2.02906125e-16 2,0 Z" id="矩形" fill="#F5F5F5"></path>
                <path d="M0,78 L150,78 L150,100 C150,101.104569 149.104569,102 148,102 L2,102 C0.8954305,102 1.3527075e-16,101.104569 0,100 L0,78 L0,78 Z" id="矩形复制-58" fill="#F5F5F5"></path>
                <rect id="矩形复制-56" stroke="#E0E0E0" x="0.5" y="23.5" width="149" height="54"></rect>
                <rect id="矩形复制-55" fill="#EBEBEB" x="28" y="7" width="64" height="10"></rect>
                <rect id="矩形复制-123" fill="#EBEBEB" x="28" y="85" width="64" height="10"></rect>
                <g id="down" opacity="0.65" transform="translate(8.000000, 6.000000)" fill="#000000" fill-rule="nonzero">
                    <rect id="矩形" opacity="0" x="0" y="0" width="12" height="12"></rect>
                    <path d="M10.8126484,3 L9.93374217,3 C9.87397655,3 9.81772655,3.02929688 9.7825703,3.07734375 L6.45327342,7.66640625 L3.12397655,3.07734375 C3.0888203,3.02929688 3.0325703,3 2.97280467,3 L2.09389842,3 C2.01772655,3 1.9731953,3.08671875 2.01772655,3.14882813 L6.1497578,8.8453125 C6.2997578,9.0515625 6.60678905,9.0515625 6.75561717,8.8453125 L10.8876484,3.14882813 C10.9333515,3.08671875 10.8888203,3 10.8126484,3 Z" id="路径"></path>
                </g>
                <g id="down复制-3" opacity="0.65" transform="translate(14.000000, 90.000000) rotate(-90.000000) translate(-14.000000, -90.000000) translate(8.000000, 84.000000)" fill="#000000" fill-rule="nonzero">
                    <rect id="矩形" opacity="0" x="0" y="0" width="12" height="12"></rect>
                    <path d="M10.8126484,3 L9.93374217,3 C9.87397655,3 9.81772655,3.02929688 9.7825703,3.07734375 L6.45327342,7.66640625 L3.12397655,3.07734375 C3.0888203,3.02929688 3.0325703,3 2.97280467,3 L2.09389842,3 C2.01772655,3 1.9731953,3.08671875 2.01772655,3.14882813 L6.1497578,8.8453125 C6.2997578,9.0515625 6.60678905,9.0515625 6.75561717,8.8453125 L10.8876484,3.14882813 C10.9333515,3.08671875 10.8888203,3 10.8126484,3 Z" id="路径"></path>
                </g>
                <g id="编组-38复制" transform="translate(11.000000, 34.000000)" fill="#F5F5F5">
                    <rect id="矩形复制-81" x="0" y="0" width="128" height="6"></rect>
                    <rect id="矩形复制-82" x="0" y="14" width="128" height="6"></rect>
                    <rect id="矩形复制-83" x="0" y="28" width="80" height="6"></rect>
                </g>
            </g>
        </g>
    </g>
</svg>