<?xml version="1.0" encoding="UTF-8"?>
<svg width="185px" height="88px" viewBox="0 0 185 88" version="1.1" xmlns="http://www.w3.org/2000/svg" xmlns:xlink="http://www.w3.org/1999/xlink">
    <title>Comment</title>
    <defs>
        <circle id="path-1" cx="16" cy="16" r="16"></circle>
    </defs>
    <g id="页面-1" stroke="none" stroke-width="1" fill="none" fill-rule="evenodd">
        <g id="Ant-Design-组件缩略图" transform="translate(-99.000000, -340.000000)">
            <g id="Comment" transform="translate(99.000000, 340.000000)">
                <rect id="矩形复制-57" fill="#F5F5F5" x="43" y="28" width="126" height="10"></rect>
                <rect id="矩形复制-60" fill="#F5F5F5" x="43" y="46" width="95" height="10"></rect>
                <g id="user">
                    <mask id="mask-2" fill="white">
                        <use xlink:href="#path-1"></use>
                    </mask>
                    <use id="蒙版" fill="#699937" xlink:href="#path-1"></use>
                    <g opacity="0.65" mask="url(#mask-2)" fill-rule="nonzero">
                        <g transform="translate(0.000000, 1.000000)">
                            <rect id="矩形" fill="#000000" opacity="0" x="0" y="0" width="32" height="32"></rect>
                            <path d="M15.7797188,15.999375 C18.7012813,15.999375 21.0697187,13.6868125 21.0697187,10.835 C21.0697187,7.982625 18.7012813,5.671 15.7797188,5.671 C12.8582813,5.671 10.4895,7.982625 10.48975,10.835 C10.48975,13.6868125 12.8582813,15.999375 15.77975,15.999375 L15.7797188,15.999375 Z M13.7958125,17.7211875 C10.0218437,17.7211875 6.962125,20.7075625 6.962125,24.3915 L6.962125,30.4928437 C6.962125,31.9985625 10.0218438,32 13.7958125,32 L18.2046875,32 C21.97825,32 25.0378125,31.944375 25.0378125,30.4928437 L25.0378125,24.3915625 C25.0378125,20.7075938 21.9785,17.7211875 18.2046875,17.7211875 L13.7958125,17.7211875 Z" id="形状" fill="#FFFFFF"></path>
                        </g>
                    </g>
                </g>
                <text id="Han-Solo" font-family="PingFangSC-Regular, PingFang SC" font-size="12" font-weight="normal" line-spacing="20" fill="#000000" fill-opacity="0.65">
                    <tspan x="43" y="13">Han Solo</tspan>
                </text>
                <text id="0" font-family="PingFangSC-Regular, PingFang SC" font-size="12" font-weight="normal" line-spacing="20" fill="#000000" fill-opacity="0.45">
                    <tspan x="65" y="81">0</tspan>
                </text>
                <text id="0-Reply-to" font-family="PingFangSC-Regular, PingFang SC" font-size="12" font-weight="normal" line-spacing="20" fill="#000000" fill-opacity="0.45">
                    <tspan x="111" y="81">0 Reply to</tspan>
                </text>
                <text id="3-seconds-ago" font-family="PingFangSC-Regular, PingFang SC" font-size="12" font-weight="normal" line-spacing="20" fill="#000000" fill-opacity="0.25">
                    <tspan x="102" y="13">3 seconds ago</tspan>
                </text>
                <g id="like" opacity="0.45" transform="translate(43.000000, 71.000000)" fill="#000000" fill-rule="nonzero">
                    <rect id="矩形" opacity="0" x="0" y="0" width="14" height="14"></rect>
                    <path d="M12.1119141,7.29667969 C12.3416016,6.99316406 12.46875,6.62128906 12.46875,6.234375 C12.46875,5.62050781 12.1255859,5.03945313 11.5732422,4.71542969 C11.4310466,4.63202454 11.2691482,4.58812789 11.1042969,4.58828125 L7.82578125,4.58828125 L7.9078125,2.90800781 C7.92695312,2.50195313 7.78339844,2.11640625 7.50449219,1.82246094 C7.22421875,1.52851563 6.846875,1.36582031 6.43945312,1.36582031 C5.72851562,1.36582031 5.09960938,1.84433594 4.9109375,2.52929688 L3.73652344,6.78125 L1.96875,6.78125 C1.72675781,6.78125 1.53125,6.97675781 1.53125,7.21875 L1.53125,12.1953125 C1.53125,12.4373047 1.72675781,12.6328125 1.96875,12.6328125 L10.1896484,12.6328125 C10.3154297,12.6328125 10.4384766,12.6082031 10.5519531,12.5589844 C11.2027344,12.2814453 11.6224609,11.6457031 11.6224609,10.9402344 C11.6224609,10.7679687 11.5978516,10.5984375 11.5486328,10.434375 C11.7783203,10.1308594 11.9054687,9.75898438 11.9054687,9.37207031 C11.9054687,9.19980469 11.8808594,9.03027344 11.8316406,8.86621094 C12.0613281,8.56269531 12.1884766,8.19082031 12.1884766,7.80390625 C12.1857422,7.63164062 12.1611328,7.46074219 12.1119141,7.29667969 Z M2.515625,11.6484375 L2.515625,7.765625 L3.62304688,7.765625 L3.62304688,11.6484375 L2.515625,11.6484375 Z M11.2164062,6.82226563 L10.9169922,7.08203125 L11.1070312,7.42929688 C11.1699219,7.54414062 11.2013672,7.66992188 11.2013672,7.80253906 C11.2013672,8.028125 11.1029297,8.24277344 10.9333984,8.39042969 L10.6339844,8.65019531 L10.8240234,8.99746094 C10.8869141,9.11230469 10.9183594,9.23808594 10.9183594,9.37070312 C10.9183594,9.59628906 10.8199219,9.8109375 10.6503906,9.95859375 L10.3509766,10.2183594 L10.5410156,10.565625 C10.6039062,10.6804687 10.6353516,10.80625 10.6353516,10.9388672 C10.6353516,11.2451172 10.4548828,11.5212891 10.1759766,11.6470703 L4.49804688,11.6470703 L4.49804688,7.721875 L5.85839844,2.79316406 C5.92949219,2.53476562 6.16601562,2.35292969 6.43535156,2.3515625 C6.53925781,2.3515625 6.64179688,2.38164062 6.72382813,2.44316406 C6.85917969,2.54433594 6.93164062,2.69746094 6.9234375,2.86015625 L6.7921875,5.57265625 L11.090625,5.57265625 C11.3339844,5.72167969 11.484375,5.97324219 11.484375,6.234375 C11.484375,6.45996094 11.3859375,6.67324219 11.2164062,6.82226563 Z" id="形状"></path>
                </g>
                <g id="unlike" opacity="0.45" transform="translate(89.000000, 71.000000)" fill="#000000" fill-rule="nonzero">
                    <rect id="矩形" opacity="0" x="0" y="0" width="14" height="14"></rect>
                    <path d="M12.1119141,6.70332031 C12.1611328,6.53925781 12.1857422,6.36972656 12.1857422,6.19746094 C12.1857422,5.81054688 12.0585938,5.43867188 11.8289062,5.13515625 C11.878125,4.97109375 11.9027344,4.8015625 11.9027344,4.62929687 C11.9027344,4.24238281 11.7755859,3.87050781 11.5458984,3.56699219 C11.5951172,3.40292969 11.6197266,3.23339844 11.6197266,3.06113281 C11.6197266,2.35566406 11.2,1.71992188 10.5492187,1.44238281 C10.4357422,1.39316406 10.3140625,1.36855469 10.1869141,1.36855469 L1.96875,1.36855469 C1.72675781,1.36855469 1.53125,1.5640625 1.53125,1.80605469 L1.53125,6.78261719 C1.53125,7.02460938 1.72675781,7.22011719 1.96875,7.22011719 L3.73652344,7.22011719 L4.90957031,11.4693359 C5.09824219,12.1542969 5.72714844,12.6328125 6.43808594,12.6328125 C6.84414063,12.6328125 7.22285156,12.4714844 7.503125,12.1761719 C7.78339844,11.8822266 7.92695312,11.4966797 7.90644531,11.090625 L7.82441406,9.41035156 L11.1042969,9.41035156 C11.2697266,9.41035156 11.4310547,9.36660156 11.5732422,9.28320313 C12.1255859,8.96191406 12.46875,8.37949219 12.46875,7.765625 C12.46875,7.37871094 12.3416016,7.00683594 12.1119141,6.70332031 Z M2.515625,6.234375 L2.515625,2.3515625 L3.62304688,2.3515625 L3.62304688,6.234375 L2.515625,6.234375 Z M11.090625,8.42734375 L6.7921875,8.42734375 L6.9234375,11.1398437 C6.93164063,11.3025391 6.85917969,11.4556641 6.72382813,11.5568359 C6.64042969,11.6183594 6.53789062,11.6498047 6.43535156,11.6484802 C6.16738281,11.6470703 5.93085937,11.4652344 5.85839844,11.2068359 L4.49804688,6.278125 L4.49804688,2.3515625 L10.1773437,2.3515625 C10.45625,2.47734375 10.6367188,2.75351562 10.6367188,3.05976562 C10.6367188,3.19238281 10.6052734,3.31816406 10.5423828,3.43300781 L10.3523438,3.78027344 L10.6517578,4.04003906 C10.8226563,4.18769531 10.9197266,4.40234375 10.9197266,4.62792969 C10.9197266,4.76054687 10.8882813,4.88632812 10.8253906,5.00117187 L10.6353516,5.3484375 L10.9347656,5.60820312 C11.1056641,5.75585937 11.2027344,5.97050781 11.2027344,6.19609375 C11.2027344,6.32871094 11.1712891,6.45449219 11.1083984,6.56933594 L10.9169922,6.91796875 L11.2164063,7.17773437 C11.3873047,7.32539062 11.484375,7.54003906 11.484375,7.765625 C11.484375,8.02675781 11.3339844,8.27832031 11.090625,8.42734375 L11.090625,8.42734375 Z" id="形状"></path>
                </g>
            </g>
        </g>
    </g>
</svg>