<?xml version="1.0" encoding="UTF-8"?>
<svg width="120px" height="68px" viewBox="0 0 120 68" version="1.1" xmlns="http://www.w3.org/2000/svg" xmlns:xlink="http://www.w3.org/1999/xlink">
    <title>DatePicker</title>
    <g id="页面-1" stroke="none" stroke-width="1" fill="none" fill-rule="evenodd">
        <g id="DatePicker" transform="translate(-239.000000, -25.000000)">
            <g transform="translate(239.000000, 25.000000)">
                <g id="3.DataEntry/DatePicker/Default">
                    <g id="3.DataEntry/Selecte/Default/Unselected">
                        <g id="3.DataEntry/Input/Default/Basic-#">
                            <g id="9.Box/1.Cards/4.Border" fill-rule="nonzero">
                                <g id="Z/Shape/RectangleRC/2px/RC-A">
                                    <rect id="BG/fill" fill="#FFFFFF" x="1" y="1" width="118" height="30" rx="1"></rect>
                                    <rect id="outline" stroke="#000000" stroke-width="1" opacity="0.15" x="0.5" y="0.5" width="119" height="31" rx="2"></rect>
                                </g>
                            </g>
                            <text id="✏️Text" opacity="0.25" font-family="PingFangSC-Regular, PingFang SC" font-size="14" font-weight="normal" line-spacing="22" fill="#000000">
                                <tspan x="12" y="20">|||||||||||||||||||</tspan>
                            </text>
                        </g>
                        <g id="7.Icon/interface/3.calendar/outline" transform="translate(98.000000, 9.000000)" fill="#000000" fill-rule="nonzero" opacity="0.65">
                            <path d="M12.03125,2.515625 L9.734375,2.515625 L9.734375,1.640625 C9.734375,1.58046875 9.68515625,1.53125 9.625,1.53125 L8.859375,1.53125 C8.79921875,1.53125 8.75,1.58046875 8.75,1.640625 L8.75,2.515625 L5.25,2.515625 L5.25,1.640625 C5.25,1.58046875 5.20078125,1.53125 5.140625,1.53125 L4.375,1.53125 C4.31484375,1.53125 4.265625,1.58046875 4.265625,1.640625 L4.265625,2.515625 L1.96875,2.515625 C1.72675781,2.515625 1.53125,2.71113281 1.53125,2.953125 L1.53125,12.03125 C1.53125,12.2732422 1.72675781,12.46875 1.96875,12.46875 L12.03125,12.46875 C12.2732422,12.46875 12.46875,12.2732422 12.46875,12.03125 L12.46875,2.953125 C12.46875,2.71113281 12.2732422,2.515625 12.03125,2.515625 Z M11.484375,11.484375 L2.515625,11.484375 L2.515625,6.2890625 L11.484375,6.2890625 L11.484375,11.484375 Z M2.515625,5.359375 L2.515625,3.5 L4.265625,3.5 L4.265625,4.15625 C4.265625,4.21640625 4.31484375,4.265625 4.375,4.265625 L5.140625,4.265625 C5.20078125,4.265625 5.25,4.21640625 5.25,4.15625 L5.25,3.5 L8.75,3.5 L8.75,4.15625 C8.75,4.21640625 8.79921875,4.265625 8.859375,4.265625 L9.625,4.265625 C9.68515625,4.265625 9.734375,4.21640625 9.734375,4.15625 L9.734375,3.5 L11.484375,3.5 L11.484375,5.359375 L2.515625,5.359375 Z" id="fill"></path>
                        </g>
                    </g>
                </g>
                <g id="3.DataEntry/DatePicker/Small" transform="translate(0.000000, 44.000000)">
                    <g id="3.DataEntry/Selecte/Small/Unselected">
                        <g id="3.DataEntry/Input/Small/Basic-#">
                            <g id="9.Box/1.Cards/4.Border" fill-rule="nonzero">
                                <g id="Z/Shape/RectangleRC/2px/RC-A">
                                    <rect id="BG/fill" fill="#FFFFFF" x="1" y="1" width="118" height="22" rx="1"></rect>
                                    <rect id="outline" stroke="#000000" stroke-width="1" opacity="0.15" x="0.5" y="0.5" width="119" height="23" rx="2"></rect>
                                </g>
                            </g>
                            <text id="✏️Text" opacity="0.25" font-family="PingFangSC-Regular, PingFang SC" font-size="12" font-weight="normal" line-spacing="20" fill="#000000">
                                <tspan x="8" y="15"> |||||||||||||||||||||</tspan>
                            </text>
                        </g>
                        <g id="7.Icon/interface/3.calendar/outline" transform="translate(100.000000, 6.000000)" fill="#000000" fill-rule="nonzero" opacity="0.65">
                            <path d="M10.3125,2.15625 L8.34375,2.15625 L8.34375,1.40625 C8.34375,1.3546875 8.3015625,1.3125 8.25,1.3125 L7.59375,1.3125 C7.5421875,1.3125 7.5,1.3546875 7.5,1.40625 L7.5,2.15625 L4.5,2.15625 L4.5,1.40625 C4.5,1.3546875 4.4578125,1.3125 4.40625,1.3125 L3.75,1.3125 C3.6984375,1.3125 3.65625,1.3546875 3.65625,1.40625 L3.65625,2.15625 L1.6875,2.15625 C1.48007812,2.15625 1.3125,2.32382813 1.3125,2.53125 L1.3125,10.3125 C1.3125,10.5199219 1.48007812,10.6875 1.6875,10.6875 L10.3125,10.6875 C10.5199219,10.6875 10.6875,10.5199219 10.6875,10.3125 L10.6875,2.53125 C10.6875,2.32382813 10.5199219,2.15625 10.3125,2.15625 Z M9.84375,9.84375 L2.15625,9.84375 L2.15625,5.390625 L9.84375,5.390625 L9.84375,9.84375 Z M2.15625,4.59375 L2.15625,3 L3.65625,3 L3.65625,3.5625 C3.65625,3.6140625 3.6984375,3.65625 3.75,3.65625 L4.40625,3.65625 C4.4578125,3.65625 4.5,3.6140625 4.5,3.5625 L4.5,3 L7.5,3 L7.5,3.5625 C7.5,3.6140625 7.5421875,3.65625 7.59375,3.65625 L8.25,3.65625 C8.3015625,3.65625 8.34375,3.6140625 8.34375,3.5625 L8.34375,3 L9.84375,3 L9.84375,4.59375 L2.15625,4.59375 Z" id="fill"></path>
                        </g>
                    </g>
                </g>
            </g>
        </g>
    </g>
</svg>