<?xml version="1.0" encoding="UTF-8"?>
<svg width="155px" height="104px" viewBox="0 0 155 104" version="1.1" xmlns="http://www.w3.org/2000/svg" xmlns:xlink="http://www.w3.org/1999/xlink">
    <title>Draw</title>
    <g id="页面-1" stroke="none" stroke-width="1" fill="none" fill-rule="evenodd">
        <g id="Ant-Design-组件缩略图" transform="translate(-345.000000, -562.000000)">
            <g id="Draw" transform="translate(345.000000, 562.000000)">
                <rect id="矩形复制-63" fill="#F5F5F5" x="0" y="0" width="155" height="104" rx="2"></rect>
                <path d="M71,1 L152,1 C153.104569,1 154,1.8954305 154,3 L154,101 C154,102.104569 153.104569,103 152,103 L71,103 L71,103 L71,1 Z" id="矩形" fill="#FFFFFF"></path>
                <rect id="矩形复制-60" fill="#EBEBEB" x="79" y="8" width="31" height="6"></rect>
                <rect id="矩形复制-64" fill="#F5F5F5" x="79" y="35" width="31" height="6"></rect>
                <rect id="矩形复制-65" fill="#F5F5F5" x="79" y="49" width="67" height="6"></rect>
                <rect id="矩形复制-66" fill="#F5F5F5" x="79" y="63" width="67" height="6"></rect>
                <g id="编组-35" transform="translate(122.000000, 84.000000)" fill="#699937">
                    <rect id="矩形复制-67" x="0" y="0" width="24" height="10" rx="1.2"></rect>
                </g>
                <rect id="矩形" fill="#E8E8E8" x="71" y="21" width="83" height="1"></rect>
                <g id="close" opacity="0.45" transform="translate(138.000000, 7.000000)" fill="#000000" fill-rule="nonzero">
                    <rect id="矩形" opacity="0" x="0" y="0" width="8" height="8"></rect>
                    <path d="M4.4046875,4 L6.45546875,1.55546875 C6.48984375,1.51484375 6.4609375,1.453125 6.4078125,1.453125 L5.784375,1.453125 C5.74765625,1.453125 5.7125,1.46953125 5.68828125,1.49765625 L3.996875,3.5140625 L2.30546875,1.49765625 C2.28203125,1.46953125 2.246875,1.453125 2.209375,1.453125 L1.5859375,1.453125 C1.5328125,1.453125 1.50390625,1.51484375 1.53828125,1.55546875 L3.5890625,4 L1.53828125,6.44453125 C1.50390625,6.48515625 1.5328125,6.546875 1.5859375,6.546875 L2.209375,6.546875 C2.24609375,6.546875 2.28125,6.53046875 2.30546875,6.50234375 L3.996875,4.4859375 L5.68828125,6.50234375 C5.71171875,6.53046875 5.746875,6.546875 5.784375,6.546875 L6.4078125,6.546875 C6.4609375,6.546875 6.48984375,6.48515625 6.45546875,6.44453125 L4.4046875,4 Z" id="路径"></path>
                </g>
            </g>
        </g>
    </g>
</svg>