<?xml version="1.0" encoding="UTF-8"?>
<svg width="120px" height="96px" viewBox="0 0 120 96" version="1.1" xmlns="http://www.w3.org/2000/svg" xmlns:xlink="http://www.w3.org/1999/xlink">
    <title>Dropdown</title>
    <g id="页面-1" stroke="none" stroke-width="1" fill="none" fill-rule="evenodd">
        <g id="Dropdown" transform="translate(-334.000000, -14.000000)">
            <g transform="translate(334.000000, 14.000000)">
                <g id="Navigation/DropdownMenu" transform="translate(0.000000, 24.000000)">
                    <g id="9.Box/1.Cards/3.Shadow" fill-rule="nonzero">
                        <g id="Z/Shape/RectangleRC/2px/RC-A">
                            <rect id="BG/fill" fill="#FFFFFF" x="1" y="1" width="118" height="70" rx="1"></rect>
                            <rect id="outline" stroke="#000000" stroke-width="1" opacity="0.15" x="0.5" y="0.5" width="119" height="71" rx="2"></rect>
                        </g>
                    </g>
                    <g id="2.Navigation/Dropdown/MenuRow/2.Highlight" transform="translate(0.000000, 4.000000)">
                        <g id="Z/Shape/Rectangle" stroke-width="1" fill-rule="evenodd">
                            <rect id="BG/fill" fill="#FFFFFF" fill-rule="nonzero" x="1" y="1" width="118" height="30"></rect>
                            <rect id="outline" opacity="0.15" fill-rule="nonzero" x="0" y="0" width="120" height="32"></rect>
                        </g>
                        <text id="✏️Text" opacity="0.65" font-family="PingFangSC-Regular, PingFang SC" font-size="14" font-weight="normal" line-spacing="22" fill="#000000">
                            <tspan x="12" y="20">Menu item</tspan>
                        </text>
                    </g>
                    <g id="2.Navigation/Dropdown/MenuRow/1.-Clickable-#" transform="translate(0.000000, 36.000000)" font-family="PingFangSC-Regular, PingFang SC" font-size="14" font-weight="normal" line-spacing="22" opacity="0.65">
                        <text id="✏️Text"></text>
                    </g>
                </g>
                <text id="||||||||||||||||||||" font-family="PingFangSC-Regular, PingFang SC" font-size="14" font-weight="normal" line-spacing="22" fill="#699937">
                    <tspan x="0" y="15">|||||||||||||||||||||||</tspan>
                </text>
                <g id="down" transform="translate(71.000000, 4.000000)" fill-rule="nonzero">
                    <rect id="矩形" fill="#000000" opacity="0" x="0" y="0" width="14" height="14"></rect>
                    <path d="M12.0859375,3.5 L11.0605469,3.5 C10.9908203,3.5 10.9251953,3.53417969 10.8841797,3.59023438 L7,8.94414063 L3.11582031,3.59023438 C3.07480469,3.53417969 3.00917969,3.5 2.93945312,3.5 L1.9140625,3.5 C1.82519531,3.5 1.77324219,3.60117187 1.82519531,3.67363281 L6.64589844,10.3195313 C6.82089844,10.5601563 7.17910156,10.5601563 7.35273438,10.3195313 L12.1734375,3.67363281 C12.2267578,3.60117187 12.1748047,3.5 12.0859375,3.5 Z" id="路径" fill="#699937"></path>
                </g>
                <rect id="矩形复制-55备份-7" fill="#EBEBEB" x="12" y="36" width="96" height="16"></rect>
                <rect id="矩形复制-55备份-8" fill="#EBEBEB" x="12" y="69" width="96" height="16"></rect>
            </g>
        </g>
    </g>
</svg>