<?xml version="1.0" encoding="UTF-8"?>
<svg width="112px" height="32px" viewBox="0 0 112 32" version="1.1" xmlns="http://www.w3.org/2000/svg" xmlns:xlink="http://www.w3.org/1999/xlink">
    <title>编组 26</title>
    <g id="页面-1" stroke="none" stroke-width="1" fill="none" fill-rule="evenodd">
        <g id="Ant-Design-组件缩略图" transform="translate(-128.000000, -138.000000)" fill-rule="nonzero">
            <g id="编组-26" transform="translate(128.000000, 138.000000)">
                <g id="smile-fill">
                    <rect id="矩形" fill="#000000" opacity="0" x="0" y="0" width="32" height="32"></rect>
                    <path d="M16,2 C8.26875,2 2,8.26875 2,16 C2,23.73125 8.26875,30 16,30 C23.73125,30 30,23.73125 30,16 C30,8.26875 23.73125,2 16,2 Z M9,13.15625 C9,12.328125 9.671875,11.65625 10.5,11.65625 C11.328125,11.65625 12,12.328125 12,13.15625 C12,13.984375 11.328125,14.65625 10.5,14.65625 C9.671875,14.65625 9,13.984375 9,13.15625 Z M16,21.65625 C13.328125,21.65625 11.1375,19.553125 11,16.91875 C10.99375,16.775 11.10625,16.65625 11.25,16.65625 L12.753125,16.65625 C12.884375,16.65625 12.996875,16.75625 13.00625,16.8875 C13.125,18.434375 14.421875,19.65625 16,19.65625 C17.578125,19.65625 18.878125,18.434375 18.99375,16.8875 C19.003125,16.75625 19.115625,16.65625 19.246875,16.65625 L20.75,16.65625 C20.89375,16.65625 21.00625,16.775 21,16.91875 C20.8625,19.553125 18.671875,21.65625 16,21.65625 Z M21.5,14.65625 C20.671875,14.65625 20,13.984375 20,13.15625 C20,12.328125 20.671875,11.65625 21.5,11.65625 C22.328125,11.65625 23,12.328125 23,13.15625 C23,13.984375 22.328125,14.65625 21.5,14.65625 Z" id="形状" fill="#699937"></path>
                </g>
                <g id="heart-fill" transform="translate(40.000000, 0.000000)">
                    <rect id="矩形" fill="#000000" opacity="0" x="0" y="0" width="32" height="32"></rect>
                    <path d="M28.84375,8.8625 C28.425,7.890625 27.825,7.021875 27.065625,6.275 C26.30625,5.53125 25.425,4.95 24.440625,4.540625 C23.425,4.11875 22.35,3.90625 21.240625,3.90625 C19.7,3.90625 18.196875,4.328125 16.890625,5.125 C16.578125,5.315625 16.28125,5.525 16,5.753125 C15.71875,5.525 15.421875,5.315625 15.109375,5.125 C13.803125,4.328125 12.3,3.90625 10.759375,3.90625 C9.65,3.90625 8.575,4.11875 7.559375,4.540625 C6.578125,4.946875 5.69375,5.53125 4.934375,6.275 C4.171875,7.021875 3.575,7.890625 3.15625,8.8625 C2.721875,9.871875 2.5,10.94375 2.5,12.046875 C2.5,13.0875 2.7125,14.171875 3.134375,15.275 C3.4875,16.196875 3.99375,17.153125 4.640625,18.11875 C5.665625,19.646875 7.075,21.240625 8.825,22.85625 C11.725,25.534375 14.596875,27.384375 14.71875,27.459375 L15.459375,27.934375 C15.7875,28.14375 16.209375,28.14375 16.5375,27.934375 L17.278125,27.459375 C17.4,27.38125 20.26875,25.534375 23.171875,22.85625 C24.921875,21.240625 26.33125,19.646875 27.35625,18.11875 C28.003125,17.153125 28.5125,16.196875 28.8625,15.275 C29.284375,14.171875 29.4969076,13.0875 29.4969076,12.046875 C29.5,10.94375 29.278125,9.871875 28.84375,8.8625 Z" id="路径" fill="#BAE7FF"></path>
                </g>
                <g id="star-fill" transform="translate(80.000000, 0.000000)">
                    <rect id="矩形" fill="#000000" opacity="0" x="0" y="0" width="32" height="32"></rect>
                    <path d="M28.378125,11.034375 L20.44375,9.88125 L16.896875,2.690625 C16.8,2.49375 16.640625,2.334375 16.44375,2.2375 C15.95,1.99375 15.35,2.196875 15.103125,2.690625 L11.55625,9.88125 L3.621875,11.034375 C3.403125,11.065625 3.203125,11.16875 3.05,11.325 C2.665625,11.721875 2.671875,12.353125 3.06875,12.740625 L8.809375,18.3375 L7.453125,26.240625 C7.415625,26.45625 7.45,26.68125 7.553125,26.875 C7.809375,27.3625 8.415625,27.553125 8.903125,27.29375 L16,23.5625 L23.096875,27.29375 C23.290625,27.396875 23.515625,27.43125 23.73125,27.39375 C24.275,27.3 24.640625,26.784375 24.546875,26.240625 L23.190625,18.3375 L28.93125,12.740625 C29.0875,12.5875 29.190625,12.3875 29.221875,12.16875 C29.30625,11.621875 28.925,11.115625 28.378125,11.034375 Z" id="路径" fill="#EBEBEB"></path>
                </g>
            </g>
        </g>
    </g>
</svg>