<?xml version="1.0" encoding="UTF-8"?>
<svg width="174px" height="64px" viewBox="0 0 174 64" version="1.1" xmlns="http://www.w3.org/2000/svg" xmlns:xlink="http://www.w3.org/1999/xlink">
    <title>Message</title>
    <defs>
        <rect id="path-1" x="0" y="0" width="150" height="40" rx="2"></rect>
        <filter x="-13.3%" y="-40.0%" width="126.7%" height="200.0%" filterUnits="objectBoundingBox" id="filter-2">
            <feOffset dx="0" dy="4" in="SourceAlpha" result="shadowOffsetOuter1"></feOffset>
            <feGaussianBlur stdDeviation="6" in="shadowOffsetOuter1" result="shadowBlurOuter1"></feGaussianBlur>
            <feColorMatrix values="0 0 0 0 0   0 0 0 0 0   0 0 0 0 0  0 0 0 0.15 0" type="matrix" in="shadowBlurOuter1"></feColorMatrix>
        </filter>
    </defs>
    <g id="页面-1" stroke="none" stroke-width="1" fill="none" fill-rule="evenodd">
        <g id="Ant-Design-组件缩略图" transform="translate(-814.000000, -586.000000)">
            <g id="Message" transform="translate(826.000000, 594.000000)">
                <g id="Rectangle-1-Copy-7">
                    <use fill="black" fill-opacity="1" filter="url(#filter-2)" xlink:href="#path-1"></use>
                    <use fill="#FFFFFF" fill-rule="evenodd" xlink:href="#path-1"></use>
                </g>
                <g id="check-circle-fill" transform="translate(16.000000, 12.000000)" fill-rule="nonzero">
                    <rect id="矩形" fill="#000000" opacity="0" x="0" y="0" width="16" height="16"></rect>
                    <path d="M8,1 C4.134375,1 1,4.134375 1,8 C1,11.865625 4.134375,15 8,15 C11.865625,15 15,11.865625 15,8 C15,4.134375 11.865625,1 8,1 Z M11.0234375,5.7140625 L7.7328125,10.2765625 C7.534375,10.553125 7.1234375,10.553125 6.925,10.2765625 L4.9765625,7.5765625 C4.9171875,7.49375 4.9765625,7.378125 5.078125,7.378125 L5.8109375,7.378125 C5.9703125,7.378125 6.121875,7.4546875 6.215625,7.5859375 L7.328125,9.1296875 L9.784375,5.7234375 C9.878125,5.59375 10.028125,5.515625 10.1890625,5.515625 L10.921875,5.515625 C11.0234375,5.515625 11.0828125,5.63125 11.0234375,5.7140625 Z" id="形状" fill="#52C41A"></path>
                </g>
                <text id="||||||||||||||||||||" font-family="PingFangSC-Regular, PingFang SC" font-size="14" font-weight="normal" line-spacing="22" fill="#000000" fill-opacity="0.65">
                    <tspan x="40" y="24">||||||||||||||||||||||||||||||</tspan>
                </text>
            </g>
        </g>
    </g>
</svg>