<?xml version="1.0" encoding="UTF-8"?>
<svg width="184px" height="24px" viewBox="0 0 184 24" version="1.1" xmlns="http://www.w3.org/2000/svg" xmlns:xlink="http://www.w3.org/1999/xlink">
    <title>Pagination</title>
    <g id="页面-1" stroke="none" stroke-width="1" fill="none" fill-rule="evenodd">
        <g id="Ant-Design-组件缩略图" transform="translate(-331.000000, -1062.000000)">
            <g id="Pagination" transform="translate(331.000000, 1062.000000)">
                <g id="2.Navigation/*/Pagination/PageSelected" transform="translate(32.000000, 0.000000)">
                    <g id="Z/Shape/RectangleRC/2px/RC-A" fill-rule="nonzero">
                        <rect id="BG/fill" fill="#699937" x="1" y="1" width="22" height="22" rx="1"></rect>
                        <rect id="outline" stroke="#699937" stroke-width="1" opacity="1" x="0.5" y="0.5" width="23" height="23" rx="2"></rect>
                    </g>
                    <text id="✏️Text" font-family="PingFangSC-Regular, PingFang SC" font-size="14" font-weight="normal" line-spacing="22" fill="#ffffff">
                        <tspan x="9.193" y="16">1</tspan>
                    </text>
                </g>
                <g id="2.Navigation/*/Pagination/PageNumber" transform="translate(64.000000, 0.000000)">
                    <g id="9.Box/1.Cards/4.Border" fill-rule="nonzero">
                        <g id="Z/Shape/RectangleRC/2px/RC-A">
                            <rect id="BG/fill" fill="#f1f2f3" x="1" y="1" width="22" height="22" rx="1"></rect>
                            <rect id="outline" stroke="#000000" stroke-width="1" opacity="0.15" x="0.5" y="0.5" width="23" height="23" rx="2"></rect>
                        </g>
                    </g>
                    <text id="✏️Text" opacity="0.65" font-family="PingFangSC-Regular, PingFang SC" font-size="14" font-weight="normal" line-spacing="22" fill="#000000">
                        <tspan x="7.8" y="16">2</tspan>
                    </text>
                </g>
                <g id="2.Navigation/*/Pagination/PageNumber" transform="translate(96.000000, 0.000000)">
                    <g id="9.Box/1.Cards/4.Border" fill-rule="nonzero">
                        <g id="Z/Shape/RectangleRC/2px/RC-A">
                            <rect id="BG/fill" fill="#f1f2f3" x="1" y="1" width="22" height="22" rx="1"></rect>
                            <rect id="outline" stroke="#000000" stroke-width="1" opacity="0.15" x="0.5" y="0.5" width="23" height="23" rx="2"></rect>
                        </g>
                    </g>
                    <text id="✏️Text" opacity="0.65" font-family="PingFangSC-Regular, PingFang SC" font-size="14" font-weight="normal" line-spacing="22" fill="#000000">
                        <tspan x="7.8" y="16">3</tspan>
                    </text>
                </g>
                <g id="2.Navigation/*/Pagination/PageNumber" transform="translate(128.000000, 0.000000)">
                    <g id="9.Box/1.Cards/4.Border" fill-rule="nonzero">
                        <g id="Z/Shape/RectangleRC/2px/RC-A">
                            <rect id="BG/fill" fill="#f1f2f3" x="1" y="1" width="22" height="22" rx="1"></rect>
                            <rect id="outline" stroke="#000000" stroke-width="1" opacity="0.15" x="0.5" y="0.5" width="23" height="23" rx="2"></rect>
                        </g>
                    </g>
                    <text id="✏️Text" opacity="0.65" font-family="PingFangSC-Regular, PingFang SC" font-size="14" font-weight="normal" line-spacing="22" fill="#000000">
                        <tspan x="7.8" y="16">4</tspan>
                    </text>
                </g>
                <g id="2.Navigation/*/Pagination/IconBtn-Disable#" fill-rule="nonzero">
                    <g id="9.Box/1.Cards/4.Border">
                        <g id="Z/Shape/RectangleRC/2px/RC-A">
                            <rect id="BG/fill" fill="#f1f2f3" x="1" y="1" width="22" height="22" rx="1"></rect>
                            <rect id="outline" stroke="#000000" stroke-width="1" opacity="0.15" x="0.5" y="0.5" width="23" height="23" rx="2"></rect>
                        </g>
                    </g>
                    <g id="7.Icon/arrow/1.left" transform="translate(5.000000, 5.000000)" fill="#000000" opacity="0.65">
                        <path d="M9.8984375,2.98457031 L9.8984375,1.92773437 C9.8984375,1.83613281 9.79316406,1.78554687 9.72207031,1.84160156 L3.55878906,6.65546875 C3.33457031,6.83046875 3.33457031,7.16816406 3.55878906,7.34316406 L9.72207031,12.1570312 C9.79453125,12.2130859 9.8984375,12.1625 9.8984375,12.0708984 L9.8984375,11.0140625 C9.8984375,10.9470703 9.86699219,10.8828125 9.81503906,10.8417969 L4.89316406,7 L9.81503906,3.15683594 C9.86699219,3.11582031 9.8984375,3.0515625 9.8984375,2.98457031 Z" id="fill"></path>
                    </g>
                </g>
                <g id="2.Navigation/*/Pagination/IconBtn-Clickable" transform="translate(160.000000, 0.000000)" fill-rule="nonzero">
                    <g id="2.Navigation/*/Pagination/IconBtn-Disable#">
                        <g id="9.Box/1.Cards/4.Border">
                            <g id="Z/Shape/RectangleRC/2px/RC-A">
                                <rect id="BG/fill" fill="#f1f2f3" x="1" y="1" width="22" height="22" rx="1"></rect>
                                <rect id="outline" stroke="#000000" stroke-width="1" opacity="0.15" x="0.5" y="0.5" width="23" height="23" rx="2"></rect>
                            </g>
                        </g>
                        <g id="7.Icon/arrow/2.right" transform="translate(5.000000, 5.000000)" fill="#000000" opacity="0.65">
                            <path d="M10.4685547,6.65546875 L4.30527344,1.84160156 C4.2328125,1.78554688 4.12890625,1.83613281 4.12890625,1.92773438 L4.12890625,2.98457031 C4.12890625,3.0515625 4.16035156,3.11582031 4.21230469,3.15683594 L9.13417969,7 L4.21230469,10.8431641 C4.15898438,10.8841797 4.12890625,10.9484375 4.12890625,11.0154297 L4.12890625,12.0722656 C4.12890625,12.1638672 4.23417969,12.2144531 4.30527344,12.1583984 L10.4685547,7.34453125 C10.6927734,7.16953125 10.6927734,6.83046875 10.4685547,6.65546875 Z" id="fill"></path>
                        </g>
                    </g>
                </g>
            </g>
        </g>
    </g>
</svg>