<?xml version="1.0" encoding="UTF-8"?>
<svg width="150px" height="91px" viewBox="0 0 150 91" version="1.1" xmlns="http://www.w3.org/2000/svg" xmlns:xlink="http://www.w3.org/1999/xlink">
    <title>Popconfirm</title>
    <defs>
        <path d="M135.563636,0.965517241 C136.447292,0.965517241 137.163636,1.68186164 137.163636,2.56551724 L137.163636,73.3655172 C137.163636,74.2491728 136.447292,74.9655172 135.563636,74.9655172 L72.217,74.9655172 L69.4181818,78.1655172 L66.619,74.9655172 L1.6,74.9655172 C0.7163444,74.9655172 7.19088647e-13,74.2491728 7.2475359e-13,73.3655172 L7.2475359e-13,2.56551724 C7.24645374e-13,1.68186164 0.7163444,0.965517241 1.6,0.965517241 L135.563636,0.965517241 Z" id="path-1"></path>
        <filter x="-6.6%" y="-11.7%" width="113.1%" height="123.3%" filterUnits="objectBoundingBox" id="filter-2">
            <feOffset dx="0" dy="0" in="SourceAlpha" result="shadowOffsetOuter1"></feOffset>
            <feGaussianBlur stdDeviation="3" in="shadowOffsetOuter1" result="shadowBlurOuter1"></feGaussianBlur>
            <feColorMatrix values="0 0 0 0 0   0 0 0 0 0   0 0 0 0 0  0 0 0 0.15 0" type="matrix" in="shadowBlurOuter1"></feColorMatrix>
        </filter>
    </defs>
    <g id="页面-1" stroke="none" stroke-width="1" fill="none" fill-rule="evenodd">
        <g id="Popconfirm" transform="translate(-18.000000, -24.000000)">
            <g transform="translate(24.000000, 30.000000)">
                <g id="4.DataDisplay/Popover/Box/Top" fill-rule="nonzero">
                    <g id="Combined-Shape">
                        <use fill="black" fill-opacity="1" filter="url(#filter-2)" xlink:href="#path-1"></use>
                        <use fill="#FFFFFF" xlink:href="#path-1"></use>
                    </g>
                </g>
                <g id="1.Button/3.Small/1.Text.1.Primary" transform="translate(92.600000, 45.000000)">
                    <g id="1.Button/3.Small/1.Text.2.Secondary#" transform="translate(0.400000, 0.000000)">
                        <g id="9.Box/1.Cards/8.Primary" transform="translate(0.200000, 0.200000)">
                            <g id="Z/Shape/RectangleRC/2px/RC-A">
                                <rect id="BG/fill" fill="#FFFFFF" fill-rule="nonzero" x="0.8" y="0.8" width="30.4" height="14.4" rx="0.8"></rect>
                                <rect id="outline" fill="#699937" fill-rule="evenodd" x="0" y="0" width="32" height="16" rx="1.6"></rect>
                            </g>
                        </g>
                    </g>
                </g>
                <g id="1.Button/3.Small/1.Text.2.Secondary#" transform="translate(56.000000, 45.000000)" fill-rule="nonzero">
                    <g id="9.Box/1.Cards/4.Border">
                        <g id="Z/Shape/RectangleRC/2px/RC-A" transform="translate(0.518919, 0.000000)">
                            <rect id="BG/fill" fill="#FFFFFF" x="0.8" y="0.8" width="29.5351351" height="14.4" rx="0.8"></rect>
                            <rect id="outline" stroke="#000000" stroke-width="0.8" opacity="0.15" x="0.4" y="0.4" width="30.3351351" height="15.2" rx="1.6"></rect>
                        </g>
                    </g>
                </g>
                <g id="7.Icon/suggested/12.info-circle/fill" transform="translate(13.800000, 12.000000)" fill="#FAAD14" fill-rule="nonzero">
                    <path d="M4.9,0 C2.1940625,0 0,2.1940625 0,4.9 C0,7.6059375 2.1940625,9.8 4.9,9.8 C7.6059375,9.8 9.8,7.6059375 9.8,4.9 C9.8,2.1940625 7.6059375,0 4.9,0 Z M5.25,7.2625 C5.25,7.310625 5.210625,7.35 5.1625,7.35 L4.6375,7.35 C4.589375,7.35 4.55,7.310625 4.55,7.2625 L4.55,4.2875 C4.55,4.239375 4.589375,4.2 4.6375,4.2 L5.1625,4.2 C5.210625,4.2 5.25,4.239375 5.25,4.2875 L5.25,7.2625 Z M4.9,3.5 C4.61015625,3.5 4.375,3.26484375 4.375,2.975 C4.375,2.68515625 4.61015625,2.45 4.9,2.45 C5.18984375,2.45 5.425,2.68515625 5.425,2.975 C5.425,3.26484375 5.18984375,3.5 4.9,3.5 Z" id="fill"></path>
                </g>
                <rect id="矩形复制-55备份-5" fill="#EBEBEB" x="29" y="12" width="97" height="8"></rect>
                <rect id="矩形复制-55备份-6" fill="#EBEBEB" x="29" y="24" width="53" height="8"></rect>
            </g>
        </g>
    </g>
</svg>