<?xml version="1.0" encoding="UTF-8"?>
<svg width="132px" height="109px" viewBox="0 0 132 109" version="1.1" xmlns="http://www.w3.org/2000/svg" xmlns:xlink="http://www.w3.org/1999/xlink">
    <title>Popover</title>
    <defs>
        <path d="M1.44,74.16 C0.64470996,74.16 0,73.51529 0,72.72 L0,1.44 C0,0.645 0.645,0 1.44,0 L122.4,0 C123.195,0 123.84,0.645 123.84,1.44 L123.84,72.72 C123.84,73.51529 123.19529,74.16 122.4,74.16 L64.8,74.16 L62.28,77.04 L59.76,74.16 L1.44,74.16 Z" id="path-1"></path>
        <filter x="-5.7%" y="-6.5%" width="111.3%" height="118.2%" filterUnits="objectBoundingBox" id="filter-2">
            <feOffset dx="0" dy="2" in="SourceAlpha" result="shadowOffsetOuter1"></feOffset>
            <feGaussianBlur stdDeviation="2" in="shadowOffsetOuter1" result="shadowBlurOuter1"></feGaussianBlur>
            <feColorMatrix values="0 0 0 0 0   0 0 0 0 0   0 0 0 0 0  0 0 0 0.1 0" type="matrix" in="shadowBlurOuter1"></feColorMatrix>
        </filter>
    </defs>
    <g id="页面-1" stroke="none" stroke-width="1" fill="none" fill-rule="evenodd">
        <g id="Popover" transform="translate(4.000000, 2.000000)">
            <g id="编组-7" transform="translate(33.000000, 83.000000)">
                <path d="M1.69590643,0 L56.3040936,0 C57.2407168,0 58,0.8954305 58,2 L58,21.04 C58,22.1445695 57.2407168,23.04 56.3040936,23.04 L1.69590643,23.04 C0.759283173,23.04 0,22.1445695 0,21.04 L0,2 C0,0.8954305 0.759283173,0 1.69590643,0 Z" id="路径" fill="#40A9FF" fill-rule="nonzero"></path>
                <g id="编组" transform="translate(11.920000, 4.200000)" fill="#FFFFFF" font-family="PingFangSC-Regular, PingFang SC" font-size="10.08" font-weight="normal">
                    <text id="||||||||||||||||||">
                        <tspan x="0" y="11">||||||||||||||||||</tspan>
                    </text>
                </g>
            </g>
            <g id="编组" fill-rule="nonzero">
                <g id="b-link" fill="#000000">
                    <path d="M1.44,74.16 C0.64470996,74.16 0,73.51529 0,72.72 L0,1.44 C0,0.645 0.645,0 1.44,0 L122.4,0 C123.195,0 123.84,0.645 123.84,1.44 L123.84,72.72 C123.84,73.51529 123.19529,74.16 122.4,74.16 L64.8,74.16 L62.28,77.04 L59.76,74.16 L1.44,74.16 Z" id="b"></path>
                </g>
                <g id="b-link">
                    <g id="b">
                        <use fill="black" fill-opacity="1" filter="url(#filter-2)" xlink:href="#path-1"></use>
                        <use fill="#FFFFFF" xlink:href="#path-1"></use>
                    </g>
                </g>
            </g>
            <g id="编组" transform="translate(9.000000, 5.000000)" fill="#000000" fill-opacity="0.5">
                <rect id="矩形" x="0" y="0" width="33" height="10"></rect>
            </g>
            <polygon id="路径" fill="#F0F0F0" fill-rule="nonzero" points="0 21.6 123.84 21.6 123.84 22.6 0 22.6"></polygon>
            <rect id="矩形复制-143" fill="#F5F5F5" x="9" y="48" width="76" height="8"></rect>
            <rect id="矩形复制-144" fill="#F5F5F5" x="9" y="34" width="76" height="8"></rect>
        </g>
    </g>
</svg>