<?xml version="1.0" encoding="UTF-8"?>
<svg width="165px" height="48px" viewBox="0 0 165 48" version="1.1" xmlns="http://www.w3.org/2000/svg" xmlns:xlink="http://www.w3.org/1999/xlink">
    <title>Progress</title>
    <g id="页面-1" stroke="none" stroke-width="1" fill="none" fill-rule="evenodd">
        <g id="Progress">
            <g id="Progress-Bar/Small/Error" transform="translate(0.000000, 30.000000)">
                <rect id="Rectangle-57-Copy-29" fill="#F5F5F5" x="0" y="1.63951017" width="153.385285" height="3.27902034" rx="1.63951017"></rect>
                <rect id="Rectangle-57-Copy-30" fill="#F5222D" x="0" y="1.63951017" width="68.4647303" height="3.27902034" rx="1.63951017"></rect>
                <path d="M161.036332,0 C159.225186,0 157.757312,1.46787395 157.757312,3.27902034 C157.757312,5.09016673 159.225186,6.55804068 161.036332,6.55804068 C162.847479,6.55804068 164.315353,5.09016673 164.315353,3.27902034 C164.315353,1.46787395 162.847479,0 161.036332,0 L161.036332,0 Z M162.612631,4.55299219 C162.695044,4.63557061 162.696352,4.77009351 162.615902,4.85466979 L162.615902,4.85466979 C162.534798,4.93858012 162.402676,4.93991203 162.31961,4.85799957 L161.036332,3.57736817 L159.753055,4.85733361 C159.670643,4.93991203 159.537867,4.93858012 159.456763,4.85400384 L159.456763,4.85400384 C159.375659,4.77009351 159.376967,4.63490466 159.460033,4.55232624 L160.737424,3.27902034 L159.460033,2.00504849 C159.377621,1.92247007 159.376313,1.78794717 159.456763,1.70337089 L159.456763,1.70337089 C159.537867,1.61946056 159.669988,1.61812865 159.753055,1.70004111 L161.036332,2.98067252 L162.31961,1.70070707 C162.402022,1.61812865 162.534798,1.61946056 162.615902,1.70403684 L162.615902,1.70403684 C162.697006,1.78794717 162.695698,1.92313603 162.612631,2.00571444 L161.335241,3.27902034 L162.612631,4.55299219 L162.612631,4.55299219 Z" id="Shape" fill="#F5222D"></path>
            </g>
            <g id="Progress-Bar/Small/Loading" transform="translate(0.000000, 17.000000)">
                <rect id="Rectangle-57-Copy-25" fill="#F5F5F5" x="0" y="0.372027123" width="152.67483" height="3.27902034" rx="1.63951017"></rect>
                <rect id="Rectangle-57-Copy-26" fill="#91D5FF" x="0" y="0.372027123" width="84" height="3.27902034" rx="1.63951017"></rect>
                <rect id="Rectangle-57-Copy-27" fill="#699937" x="0" y="0.372027123" width="64.8" height="3.27902034" rx="1.63951017"></rect>
            </g>
            <g id="Progress-Bar/Small/Progress-50%">
                <rect id="Rectangle-57-Copy-9" fill="#F5F5F5" x="0" y="0.918530513" width="153.257767" height="3.27902034" rx="1.63951017"></rect>
                <rect id="Rectangle-57-Copy-28" fill="#699937" x="0" y="0.918530513" width="63.0524986" height="3.27902034" rx="1.63951017"></rect>
            </g>
            <g id="Progress-Bar/Small/Success" transform="translate(0.000000, 41.000000)" fill="#52C41A">
                <rect id="Rectangle-57-Copy-31" stroke="#52C41A" stroke-width="0.54650339" x="0.273251695" y="1.91276187" width="152.838781" height="2.73251695" rx="1.36625848"></rect>
                <path d="M161.036332,0 C159.225334,0 157.757312,1.46802228 157.757312,3.27902034 C157.757312,5.09001841 159.225334,6.55804068 161.036332,6.55804068 C162.84733,6.55804068 164.315353,5.09001841 164.315353,3.27902034 C164.315353,1.46802228 162.84733,0 161.036332,0 L161.036332,0 Z M162.945938,2.35019504 L160.38458,5.18079613 C160.307505,5.26831135 160.182351,5.26831135 160.105276,5.18079613 L159.126726,4.11872015 C159.049651,4.03120492 159.049651,3.8890627 159.126726,3.80154748 C159.203801,3.71403226 159.328986,3.71403226 159.406061,3.80154748 L160.245244,4.70541344 L162.666627,2.03304862 C162.743702,1.9455334 162.868864,1.9455334 162.945938,2.03304862 C163.023013,2.12056384 163.023013,2.26267981 162.945938,2.35019504 L162.945938,2.35019504 Z" id="iconfont-checkcircle"></path>
            </g>
        </g>
    </g>
</svg>