<?xml version="1.0" encoding="UTF-8"?>
<svg width="158px" height="22px" viewBox="0 0 158 22" version="1.1" xmlns="http://www.w3.org/2000/svg" xmlns:xlink="http://www.w3.org/1999/xlink">
    <title>Rate</title>
    <g id="页面-1" stroke="none" stroke-width="1" fill="none" fill-rule="evenodd">
        <g id="Ant-Design-组件缩略图" transform="translate(-1294.000000, -142.000000)">
            <g id="Rate" transform="translate(1294.000000, 142.000000)">
                <text id="Text" font-family="HelveticaNeue, Helvetica Neue" font-size="14" font-weight="normal" line-spacing="22" fill="#000000" fill-opacity="0.65">
                    <tspan x="138" y="13">3.5</tspan>
                </text>
                <g id="Rate/_Resource/Star+unselected" transform="translate(104.000000, 3.000000)" fill="#000000" fill-opacity="0.04">
                    <path d="M14.3886837,6.37641211 C14.1796604,6.17267922 14.0842913,5.87914938 14.1336555,5.59147323 L14.9174679,1.02224826 C14.9787809,0.660183861 14.9175685,0.400689958 14.6206793,0.184424923 C14.4526922,0.0623018619 14.2528417,3.20934945e-06 14.052971,3.20934945e-06 C13.8994673,3.20934945e-06 13.7454607,0.0366944403 13.6040264,0.111042461 L9.41261655,2.37000729 C9.15428936,2.5058091 8.84567266,2.5058091 8.58734547,2.37000729 L4.57188854,0.111022345 C4.24651537,-0.0603442099 3.85260765,-0.0313774487 3.55473279,0.184404807 C3.2578436,0.400669842 3.02069836,0.659680966 3.08299701,1.02222814 L4.0431848,5.68631926 C4.09252887,5.9739954 3.99715983,6.26752525 3.7881566,6.47125814 L0.292230604,9.22104865 C0.028170413,9.47738437 -0.0659715611,9.86117384 0.0469988078,10.2106659 C0.16091462,10.560178 0.462651716,10.8145826 0.826627118,10.8676883 L5.37386551,11.6657025 C5.66260779,11.7077043 5.91220472,11.8890282 6.04138843,12.1506342 L8.13488064,16.568528 C8.2970945,16.8982261 8.63260604,17.1067867 9.00044367,17.1067867 C9.36828131,17.1067867 9.70282729,16.8982462 9.86600671,16.568528 L11.8773862,12.1507348 C12.0065498,11.8890483 12.2561869,11.7076439 12.5449896,11.6656623 L17.1742602,10.8676883 C17.5372902,10.8150654 17.8399727,10.560178 17.9529431,10.2106659 C18.0663962,9.86117384 17.9708059,9.47740448 17.7082142,9.22106876 L14.3886837,6.37641211 Z" id="Shape-Copy-4" transform="translate(9.000000, 8.553393) scale(1, -1) translate(-9.000000, -8.553393) "></path>
                </g>
                <g id="Rate/_Resource/Star_half+selected" transform="translate(78.000000, 3.000000)">
                    <g id="Group">
                        <path d="M14.3886837,6.37641211 C14.1796604,6.17267922 14.0842913,5.87914938 14.1336555,5.59147323 L14.9174679,1.02224826 C14.9787809,0.660183861 14.9175685,0.400689958 14.6206793,0.184424923 C14.4526922,0.0623018619 14.2528417,3.20934945e-06 14.052971,3.20934945e-06 C13.8994673,3.20934945e-06 13.7454607,0.0366944403 13.6040264,0.111042461 L9.41261655,2.37000729 C9.15428936,2.5058091 8.84567266,2.5058091 8.58734547,2.37000729 L4.57188854,0.111022345 C4.24651537,-0.0603442099 3.85260765,-0.0313774487 3.55473279,0.184404807 C3.2578436,0.400669842 3.02069836,0.659680966 3.08299701,1.02222814 L4.0431848,5.68631926 C4.09252887,5.9739954 3.99715983,6.26752525 3.7881566,6.47125814 L0.292230604,9.22104865 C0.028170413,9.47738437 -0.0659715611,9.86117384 0.0469988078,10.2106659 C0.16091462,10.560178 0.462651716,10.8145826 0.826627118,10.8676883 L5.37386551,11.6657025 C5.66260779,11.7077043 5.91220472,11.8890282 6.04138843,12.1506342 L8.13488064,16.568528 C8.2970945,16.8982261 8.63260604,17.1067867 9.00044367,17.1067867 C9.36828131,17.1067867 9.70282729,16.8982462 9.86600671,16.568528 L11.8773862,12.1507348 C12.0065498,11.8890483 12.2561869,11.7076439 12.5449896,11.6656623 L17.1742602,10.8676883 C17.5372902,10.8150654 17.8399727,10.560178 17.9529431,10.2106659 C18.0663962,9.86117384 17.9708059,9.47740448 17.7082142,9.22106876 L14.3886837,6.37641211 Z" id="Shape-Copy-5" fill-opacity="0.04" fill="#000000" transform="translate(9.000000, 8.553393) scale(1, -1) translate(-9.000000, -8.553393) "></path>
                        <path d="M8.97816303,14.7671228 C8.97158084,13.3567769 8.96657991,11.4396632 8.98581094,9.54615385 C9.01773657,6.40271944 8.98581053,3.35968632 8.98581053,2.43208441 L4.51698142,0.109688997 C4.19551589,-0.0596194926 3.80633889,-0.0310006142 3.51204142,0.182190156 C3.21871779,0.395857907 2.9844206,0.651758379 3.04597106,1.00995147 L3.99462726,5.61802813 C4.04337873,5.90224936 3.94915504,6.192254 3.74266189,6.39354011 L0.288720995,9.11030639 C0.0278320941,9.36356359 -0.0651792609,9.74274386 0.0464343651,10.0880386 C0.158982079,10.4333532 0.457095396,10.6847024 0.816699554,10.7371704 L5.30932686,11.5256006 C5.59460143,11.567098 5.84120077,11.7462442 5.96883302,12.0047085 L8.03718296,16.3695445 C8.19744868,16.695283 8.62239052,16.8835594 8.98581053,16.8835594 C8.98927129,16.6430546 8.98324573,15.856175 8.97816303,14.7671228 Z" id="Shape-Copy-2" fill="#FADB14" transform="translate(4.500000, 8.441780) scale(1, -1) translate(-4.500000, -8.441780) "></path>
                    </g>
                </g>
                <g id="Rate/_Resource/Star+selected" transform="translate(52.000000, 3.000000)" fill="#FADB14">
                    <path d="M14.3886837,6.37641211 C14.1796604,6.17267922 14.0842913,5.87914938 14.1336555,5.59147323 L14.9174679,1.02224826 C14.9787809,0.660183861 14.9175685,0.400689958 14.6206793,0.184424923 C14.4526922,0.0623018619 14.2528417,3.20934945e-06 14.052971,3.20934945e-06 C13.8994673,3.20934945e-06 13.7454607,0.0366944403 13.6040264,0.111042461 L9.41261655,2.37000729 C9.15428936,2.5058091 8.84567266,2.5058091 8.58734547,2.37000729 L4.57188854,0.111022345 C4.24651537,-0.0603442099 3.85260765,-0.0313774487 3.55473279,0.184404807 C3.2578436,0.400669842 3.02069836,0.659680966 3.08299701,1.02222814 L4.0431848,5.68631926 C4.09252887,5.9739954 3.99715983,6.26752525 3.7881566,6.47125814 L0.292230604,9.22104865 C0.028170413,9.47738437 -0.0659715611,9.86117384 0.0469988078,10.2106659 C0.16091462,10.560178 0.462651716,10.8145826 0.826627118,10.8676883 L5.37386551,11.6657025 C5.66260779,11.7077043 5.91220472,11.8890282 6.04138843,12.1506342 L8.13488064,16.568528 C8.2970945,16.8982261 8.63260604,17.1067867 9.00044367,17.1067867 C9.36828131,17.1067867 9.70282729,16.8982462 9.86600671,16.568528 L11.8773862,12.1507348 C12.0065498,11.8890483 12.2561869,11.7076439 12.5449896,11.6656623 L17.1742602,10.8676883 C17.5372902,10.8150654 17.8399727,10.560178 17.9529431,10.2106659 C18.0663962,9.86117384 17.9708059,9.47740448 17.7082142,9.22106876 L14.3886837,6.37641211 Z" id="Shape" transform="translate(9.000000, 8.553393) scale(1, -1) translate(-9.000000, -8.553393) "></path>
                </g>
                <g id="Rate/_Resource/Star+selected" transform="translate(26.000000, 3.000000)" fill="#FADB14">
                    <path d="M14.3886837,6.37641211 C14.1796604,6.17267922 14.0842913,5.87914938 14.1336555,5.59147323 L14.9174679,1.02224826 C14.9787809,0.660183861 14.9175685,0.400689958 14.6206793,0.184424923 C14.4526922,0.0623018619 14.2528417,3.20934945e-06 14.052971,3.20934945e-06 C13.8994673,3.20934945e-06 13.7454607,0.0366944403 13.6040264,0.111042461 L9.41261655,2.37000729 C9.15428936,2.5058091 8.84567266,2.5058091 8.58734547,2.37000729 L4.57188854,0.111022345 C4.24651537,-0.0603442099 3.85260765,-0.0313774487 3.55473279,0.184404807 C3.2578436,0.400669842 3.02069836,0.659680966 3.08299701,1.02222814 L4.0431848,5.68631926 C4.09252887,5.9739954 3.99715983,6.26752525 3.7881566,6.47125814 L0.292230604,9.22104865 C0.028170413,9.47738437 -0.0659715611,9.86117384 0.0469988078,10.2106659 C0.16091462,10.560178 0.462651716,10.8145826 0.826627118,10.8676883 L5.37386551,11.6657025 C5.66260779,11.7077043 5.91220472,11.8890282 6.04138843,12.1506342 L8.13488064,16.568528 C8.2970945,16.8982261 8.63260604,17.1067867 9.00044367,17.1067867 C9.36828131,17.1067867 9.70282729,16.8982462 9.86600671,16.568528 L11.8773862,12.1507348 C12.0065498,11.8890483 12.2561869,11.7076439 12.5449896,11.6656623 L17.1742602,10.8676883 C17.5372902,10.8150654 17.8399727,10.560178 17.9529431,10.2106659 C18.0663962,9.86117384 17.9708059,9.47740448 17.7082142,9.22106876 L14.3886837,6.37641211 Z" id="Shape" transform="translate(9.000000, 8.553393) scale(1, -1) translate(-9.000000, -8.553393) "></path>
                </g>
                <g id="Rate/_Resource/Star+selected" transform="translate(0.000000, 3.000000)" fill="#FADB14">
                    <path d="M14.3886837,6.37641211 C14.1796604,6.17267922 14.0842913,5.87914938 14.1336555,5.59147323 L14.9174679,1.02224826 C14.9787809,0.660183861 14.9175685,0.400689958 14.6206793,0.184424923 C14.4526922,0.0623018619 14.2528417,3.20934945e-06 14.052971,3.20934945e-06 C13.8994673,3.20934945e-06 13.7454607,0.0366944403 13.6040264,0.111042461 L9.41261655,2.37000729 C9.15428936,2.5058091 8.84567266,2.5058091 8.58734547,2.37000729 L4.57188854,0.111022345 C4.24651537,-0.0603442099 3.85260765,-0.0313774487 3.55473279,0.184404807 C3.2578436,0.400669842 3.02069836,0.659680966 3.08299701,1.02222814 L4.0431848,5.68631926 C4.09252887,5.9739954 3.99715983,6.26752525 3.7881566,6.47125814 L0.292230604,9.22104865 C0.028170413,9.47738437 -0.0659715611,9.86117384 0.0469988078,10.2106659 C0.16091462,10.560178 0.462651716,10.8145826 0.826627118,10.8676883 L5.37386551,11.6657025 C5.66260779,11.7077043 5.91220472,11.8890282 6.04138843,12.1506342 L8.13488064,16.568528 C8.2970945,16.8982261 8.63260604,17.1067867 9.00044367,17.1067867 C9.36828131,17.1067867 9.70282729,16.8982462 9.86600671,16.568528 L11.8773862,12.1507348 C12.0065498,11.8890483 12.2561869,11.7076439 12.5449896,11.6656623 L17.1742602,10.8676883 C17.5372902,10.8150654 17.8399727,10.560178 17.9529431,10.2106659 C18.0663962,9.86117384 17.9708059,9.47740448 17.7082142,9.22106876 L14.3886837,6.37641211 Z" id="Shape" transform="translate(9.000000, 8.553393) scale(1, -1) translate(-9.000000, -8.553393) "></path>
                </g>
            </g>
        </g>
    </g>
</svg>