<?xml version="1.0" encoding="UTF-8"?>
<svg width="137px" height="117px" viewBox="0 0 137 117" version="1.1" xmlns="http://www.w3.org/2000/svg" xmlns:xlink="http://www.w3.org/1999/xlink">
    <title>Result</title>
    <g id="页面-1" stroke="none" stroke-width="1" fill="none" fill-rule="evenodd">
        <g id="Ant-Design-组件缩略图" transform="translate(-2513.000000, -554.000000)">
            <g id="Result" transform="translate(2513.000000, 554.000000)">
                <g id="1.通用/2.Icon图标/Fill/Check-Circle-Fill" transform="translate(46.000000, 0.000000)">
                    <rect id="矩形" fill="#000000" fill-rule="nonzero" opacity="0" x="0" y="0" width="44.7457627" height="44.7457627"></rect>
                    <path d="M22.3728814,2.79661017 C11.5622352,2.79661017 2.79661017,11.5622352 2.79661017,22.3728814 C2.79661017,33.1835275 11.5622352,41.9491525 22.3728814,41.9491525 C33.1835275,41.9491525 41.9491525,33.1835275 41.9491525,22.3728814 C41.9491525,11.5622352 33.1835275,2.79661017 22.3728814,2.79661017 Z M30.8282574,15.9800053 L21.6256621,28.7395392 C21.0707097,29.5129767 19.9214778,29.5129767 19.3665254,28.7395392 L13.9175053,21.1886917 C13.7514566,20.9570975 13.9175053,20.6337394 14.201536,20.6337394 L16.2509269,20.6337394 C16.6966367,20.6337394 17.1204979,20.8478549 17.3826801,21.21491 L20.4939089,25.5321769 L27.3630826,16.0062235 C27.6252648,15.6435381 28.0447564,15.425053 28.4948358,15.425053 L30.5442267,15.425053 C30.8282574,15.425053 30.9943061,15.748411 30.8282574,15.9800053 Z" id="形状" fill="#52C41A" fill-rule="evenodd"></path>
                </g>
                <g id="编组-4" transform="translate(34.000000, 102.000000)">
                    <rect id="矩形" fill="#699937" x="0" y="-1.86517468e-14" width="32" height="14.305085" rx="1.01694915"></rect>
                    <rect id="矩形备份-8" stroke-opacity="0.1" stroke="#000000" x="36.6610169" y="-1.86517468e-14" width="32" height="14.305085" rx="1.01694915"></rect>
                </g>
                <rect id="矩形" fill="#EBEBEB" x="40" y="53" width="56.9491525" height="12.2033898"></rect>
                <rect id="矩形备份-6" fill="#F5F5F5" x="0" y="73" width="136.271186" height="8.13559322"></rect>
                <rect id="矩形备份-7" fill="#F5F5F5" x="15" y="85" width="105.762712" height="8.13559322"></rect>
            </g>
        </g>
    </g>
</svg>