<?xml version="1.0" encoding="UTF-8"?>
<svg width="142px" height="88px" viewBox="0 0 142 88" version="1.1" xmlns="http://www.w3.org/2000/svg" xmlns:xlink="http://www.w3.org/1999/xlink">
    <title>Alert</title>
    <g id="页面-1" stroke="none" stroke-width="1" fill="none" fill-rule="evenodd">
        <g id="Alert">
            <g id="Alert/Default/Error">
                <rect id="bg" stroke="#FFA39E" stroke-width="0.5" fill="#FFF1F0" fill-rule="evenodd" x="0.25" y="0.25" width="141.5" height="15.5" rx="1.51359432"></rect>
                <text id="Text" font-family="PingFangSC-Regular, PingFang SC" font-size="5.29758012" font-weight="normal" line-spacing="8.32476876" fill="#000000" fill-opacity="0.65">
                    <tspan x="14.379146" y="9.40558722">||||||||||||||||||||||||||||||||||||||||||||||||||||||||||||||||||||||||</tspan>
                </text>
                <path d="M8.70316734,4.91918154 C7.2401247,4.91918154 6.05437728,6.10492896 6.05437728,7.5679716 C6.05437728,9.03101423 7.2401247,10.2167617 8.70316734,10.2167617 C10.16621,10.2167617 11.3519574,9.03101423 11.3519574,7.5679716 C11.3519574,6.10492896 10.16621,4.91918154 8.70316734,4.91918154 L8.70316734,4.91918154 Z M9.94996109,8.55764648 C10.0151462,8.62179686 10.0161808,8.72629991 9.9525478,8.79200232 L9.9525478,8.79200232 C9.88839742,8.85718738 9.78389437,8.85822207 9.71819196,8.79458902 L8.70316734,7.79974073 L7.68814271,8.79407168 C7.62295764,8.85822207 7.51793725,8.85718738 7.45378687,8.79148497 L7.45378687,8.79148497 C7.38963648,8.72629991 7.39067117,8.62127952 7.45637358,8.55712913 L8.46674213,7.5679716 L7.45637358,6.57829672 C7.39118851,6.51414633 7.39015383,6.40964329 7.45378687,6.34394088 L7.45378687,6.34394088 C7.51793725,6.27875581 7.6224403,6.27772113 7.68814271,6.34135417 L8.70316734,7.33620247 L9.71819196,6.34187151 C9.78337703,6.27772113 9.88839742,6.27875581 9.9525478,6.34445822 L9.9525478,6.34445822 C10.0166982,6.40964329 10.0156635,6.51466367 9.94996109,6.57881406 L8.93959254,7.5679716 L9.94996109,8.55764648 L9.94996109,8.55764648 Z" id="Shape" fill="#F5222D" fill-rule="evenodd"></path>
                <g id="close" stroke-width="1" fill-rule="evenodd" transform="translate(131.404840, 5.297580)">
                    <rect id="Rectangle" x="0" y="0" width="4.54078296" height="4.54078296"></rect>
                    <path d="M0.62735549,0.62735549 C0.696624476,0.558086504 0.808931693,0.558086504 0.878200679,0.62735549 L0.878200679,0.62735549 L2.27040375,2.01940375 L3.66258228,0.62735549 C3.73185127,0.558086504 3.84415848,0.558086504 3.91342747,0.62735549 C3.98269645,0.696624476 3.98269645,0.808931693 3.91342747,0.878200679 L2.52140375,2.27040375 L3.91342747,3.66258228 C3.96884266,3.71799747 3.97992569,3.80095712 3.94667658,3.8673901 L3.91342747,3.91342747 C3.84415848,3.98269645 3.73185127,3.98269645 3.66258228,3.91342747 L3.66258228,3.91342747 L2.27040375,2.52140375 L0.878200679,3.91342747 C0.808931693,3.98269645 0.696624476,3.98269645 0.62735549,3.91342747 C0.558086504,3.84415848 0.558086504,3.73185127 0.62735549,3.66258228 L2.01940375,2.27040375 L0.62735549,0.878200679 C0.571940301,0.82278549 0.560857263,0.739825834 0.594106376,0.673392858 Z" id="Combined-Shape" fill-opacity="0.45" fill="#000000"></path>
                </g>
            </g>
            <g id="Alert/Default/Warning" transform="translate(0.000000, 72.000000)">
                <rect id="Rectangle-2" stroke="#FFE58F" stroke-width="0.5" fill="#FFFBE6" fill-rule="evenodd" x="0.25" y="0.25" width="141.5" height="15.5" rx="1.51359432"></rect>
                <text id="Text" font-family="PingFangSC-Regular, PingFang SC" font-size="5.29758012" font-weight="normal" line-spacing="8.32476876" fill="#000000" fill-opacity="0.65">
                    <tspan x="14.379146" y="9.40558722">||||||||||||||||||||||||||||||||||||||||||||||||||||||||||||||||||||||||</tspan>
                </text>
                <path d="M8.70316734,10.2167617 C7.2401247,10.2167617 6.05437728,9.03101423 6.05437728,7.5679716 C6.05437728,6.10492896 7.2401247,4.91918154 8.70316734,4.91918154 C10.16621,4.91918154 11.3519574,6.10492896 11.3519574,7.5679716 C11.3519574,9.03101423 10.16621,10.2167617 8.70316734,10.2167617 L8.70316734,10.2167617 Z M8.86871671,6.07802719 C8.86871671,5.98645769 8.79473684,5.91247781 8.70316734,5.91247781 L8.70316734,5.91247781 C8.61159784,5.91247781 8.53761796,5.98645769 8.53761796,6.07802719 L8.53761796,6.07802719 C8.53761796,6.16959669 8.61159784,6.24357657 8.70316734,6.24357657 L8.70316734,6.24357657 C8.79473684,6.24357657 8.86871671,6.16959669 8.86871671,6.07802719 L8.86871671,6.07802719 L8.86871671,6.07802719 Z M8.86871671,6.7402247 C8.86871671,6.6486552 8.79473684,6.57467532 8.70316734,6.57467532 L8.70316734,6.57467532 C8.61159784,6.57467532 8.53761796,6.6486552 8.53761796,6.7402247 L8.53761796,9.057916 C8.53761796,9.1494855 8.61159784,9.22346538 8.70316734,9.22346538 L8.70316734,9.22346538 C8.79473684,9.22346538 8.86871671,9.1494855 8.86871671,9.057916 L8.86871671,6.7402247 L8.86871671,6.7402247 Z" id="Shape-Copy-2" fill="#FAAD14" fill-rule="evenodd" transform="translate(8.703167, 7.567972) scale(1, -1) translate(-8.703167, -7.567972) "></path>
                <g id="Group-Copy-12" stroke-width="1" fill-rule="evenodd" transform="translate(131.404840, 5.297580)">
                    <rect id="Rectangle" x="0" y="0" width="4.54078296" height="4.54078296"></rect>
                    <path d="M0.62735549,0.62735549 C0.696624476,0.558086504 0.808931693,0.558086504 0.878200679,0.62735549 L0.878200679,0.62735549 L2.27040375,2.01940375 L3.66258228,0.62735549 C3.73185127,0.558086504 3.84415848,0.558086504 3.91342747,0.62735549 C3.98269645,0.696624476 3.98269645,0.808931693 3.91342747,0.878200679 L2.52140375,2.27040375 L3.91342747,3.66258228 C3.96884266,3.71799747 3.97992569,3.80095712 3.94667658,3.8673901 L3.91342747,3.91342747 C3.84415848,3.98269645 3.73185127,3.98269645 3.66258228,3.91342747 L3.66258228,3.91342747 L2.27040375,2.52140375 L0.878200679,3.91342747 C0.808931693,3.98269645 0.696624476,3.98269645 0.62735549,3.91342747 C0.558086504,3.84415848 0.558086504,3.73185127 0.62735549,3.66258228 L2.01940375,2.27040375 L0.62735549,0.878200679 C0.571940301,0.82278549 0.560857263,0.739825834 0.594106376,0.673392858 Z" id="Combined-Shape" fill-opacity="0.45" fill="#000000"></path>
                </g>
            </g>
            <g id="Alert/Default/Info" transform="translate(0.000000, 24.000000)">
                <path d="M140.4776,0.25 L1.52239954,0.25 C1.17049645,0.25 0.852077714,0.390825422 0.621686134,0.618926042 C0.392087527,0.846241574 0.25,1.16027329 0.25,1.50726115 L0.25,14.4875233 C0.25,14.8369826 0.391847824,15.1521504 0.621277404,15.3800846 C0.851772993,15.6090778 1.1704811,15.75 1.52239954,15.75 L140.4776,15.75 C140.829543,15.75 141.148011,15.6093725 141.378433,15.3815474 C141.60794,15.1546276 141.75,14.8411511 141.75,14.4947588 L141.75,1.50524116 C141.75,1.16311338 141.605997,0.848836368 141.374919,0.620362832 C141.144775,0.392812175 140.827765,0.25 140.4776,0.25 Z" id="Rectangle-2" stroke="#91D5FF" stroke-width="0.5" fill="#E6F7FF" fill-rule="evenodd"></path>
                <text id="Text" font-family="PingFangSC-Regular, PingFang SC" font-size="5.29758012" font-weight="normal" line-spacing="7.5679716" fill="#000000" fill-opacity="0.65">
                    <tspan x="14.379146" y="9.7839858">||||||||||||||||||||||||||||||||||||||||||||||||||||||||||||||||||||||||</tspan>
                </text>
                <path d="M8.70316734,10.2167617 C7.2401247,10.2167617 6.05437728,9.03101423 6.05437728,7.5679716 C6.05437728,6.10492896 7.2401247,4.91918154 8.70316734,4.91918154 C10.16621,4.91918154 11.3519574,6.10492896 11.3519574,7.5679716 C11.3519574,9.03101423 10.16621,10.2167617 8.70316734,10.2167617 L8.70316734,10.2167617 Z M8.70316734,9.22346538 C8.79473684,9.22346538 8.86871671,9.1494855 8.86871671,9.057916 C8.86871671,8.9663465 8.79473684,8.89236663 8.70316734,8.89236663 C8.61159784,8.89236663 8.53761796,8.9663465 8.53761796,9.057916 C8.53761796,9.1494855 8.61159784,9.22346538 8.70316734,9.22346538 L8.70316734,9.22346538 Z M9.19722876,5.91247781 L8.86095659,5.91247781 L8.52985783,5.91247781 L8.20910591,5.91247781 C8.11753641,5.91247781 8.04355653,5.98645769 8.04355653,6.07802719 C8.04355653,6.16959669 8.11753641,6.24357657 8.20910591,6.24357657 L8.52985783,6.24357657 L8.52985783,7.9120039 L8.20393249,7.9120039 C8.11236299,7.9120039 8.03838311,7.98598378 8.03838311,8.07755328 C8.03838311,8.16912278 8.11236299,8.24310266 8.20393249,8.24310266 L8.52985783,8.24310266 L8.69540721,8.24310266 C8.78697671,8.24310266 8.86095659,8.16912278 8.86095659,8.07755328 L8.86095659,6.24357657 L9.19722876,6.24357657 C9.28879826,6.24357657 9.36795156,6.16959669 9.36795156,6.07802719 C9.36795156,5.98645769 9.28879826,5.91247781 9.19722876,5.91247781 L9.19722876,5.91247781 Z" id="Shape" fill="#699937" fill-rule="evenodd" transform="translate(8.703167, 7.567972) scale(1, -1) translate(-8.703167, -7.567972) "></path>
                <rect id="Rectangle" x="135.417219" y="5.6" width="2.82119205" height="4.8"></rect>
                <path d="M135.184779,5.92493561 C135.254048,5.85566662 135.366355,5.85566662 135.435624,5.92493561 L135.435624,5.92493561 L136.827827,7.31698387 L138.220005,5.92493561 C138.289274,5.85566662 138.401582,5.85566662 138.470851,5.92493561 C138.54012,5.99420459 138.54012,6.10651181 138.470851,6.1757808 L137.078827,7.56798387 L138.470851,8.9601624 C138.526266,9.01557759 138.537349,9.09853724 138.5041,9.16497022 L138.470851,9.21100759 C138.401582,9.28027657 138.289274,9.28027657 138.220005,9.21100759 L138.220005,9.21100759 L136.827827,7.81898387 L135.435624,9.21100759 C135.366355,9.28027657 135.254048,9.28027657 135.184779,9.21100759 C135.11551,9.1417386 135.11551,9.02943138 135.184779,8.9601624 L136.576827,7.56798387 L135.184779,6.1757808 C135.129363,6.12036561 135.11828,6.03740595 135.151529,5.97097298 Z" id="Combined-Shape" fill-opacity="0.45" fill="#000000" fill-rule="evenodd"></path>
            </g>
            <g id="Alert/Default/Success" transform="translate(0.000000, 48.000000)">
                <path d="M140.4776,0.25 L1.52239954,0.25 C1.17045741,0.25 0.851989035,0.390627499 0.621566975,0.618452559 C0.3920605,0.845372354 0.25,1.15884895 0.25,1.50524116 L0.25,14.4947588 C0.25,14.8368866 0.394003031,15.1511636 0.625080958,15.3796372 C0.855225487,15.6071878 1.17223488,15.75 1.52239954,15.75 L140.4776,15.75 C140.829543,15.75 141.148011,15.6093725 141.378433,15.3815474 C141.60794,15.1546276 141.75,14.8411511 141.75,14.4947588 L141.75,1.50524116 C141.75,1.16311338 141.605997,0.848836368 141.374919,0.620362832 C141.144775,0.392812175 140.827765,0.25 140.4776,0.25 Z" id="Rectangle-2" stroke="#B7EB8F" stroke-width="0.5" fill="#F6FFED" fill-rule="evenodd"></path>
                <path d="M8.70316734,10.2167617 C7.2402481,10.2167617 6.05437728,9.03089084 6.05437728,7.5679716 C6.05437728,6.10505236 7.2402481,4.91918154 8.70316734,4.91918154 C10.1660866,4.91918154 11.3519574,6.10505236 11.3519574,7.5679716 C11.3519574,9.03089084 10.1660866,10.2167617 8.70316734,10.2167617 L8.70316734,10.2167617 Z M10.3043519,8.27017283 L8.15321327,6.17651531 C8.08848233,6.11178437 7.98335929,6.11178437 7.91862835,6.17651531 L7.09680433,6.96209 C7.03207339,7.02682094 7.03207339,7.13194399 7.09680433,7.19667493 L7.09680433,7.19667493 C7.16153527,7.26140587 7.26665832,7.26140587 7.33138926,7.19667493 L8.03617973,6.52813378 L10.0697669,8.50475776 C10.1344979,8.5694887 10.2396209,8.5694887 10.3043519,8.50475776 L10.3043519,8.50475776 C10.3690828,8.44002682 10.3690828,8.33490377 10.3043519,8.27017283 L10.3043519,8.27017283 Z" id="Shape" fill="#52C41A" fill-rule="evenodd" transform="translate(8.703167, 7.567972) scale(1, -1) translate(-8.703167, -7.567972) "></path>
                <text id="Text" font-family="PingFangSC-Regular, PingFang SC" font-size="5.29758012" font-weight="normal" line-spacing="8.32476876" fill="#000000" fill-opacity="0.65">
                    <tspan x="14.379146" y="9.40558722">||||||||||||||||||||||||||||||||||||||||||||||||||||||||||||||||||||||||</tspan>
                </text>
                <g id="Group" stroke-width="1" fill-rule="evenodd" transform="translate(131.404840, 5.297580)">
                    <rect id="Rectangle" x="0" y="0" width="4.54078296" height="4.54078296"></rect>
                    <path d="M0.62735549,0.62735549 C0.696624476,0.558086504 0.808931693,0.558086504 0.878200679,0.62735549 L0.878200679,0.62735549 L2.27040375,2.01940375 L3.66258228,0.62735549 C3.73185127,0.558086504 3.84415848,0.558086504 3.91342747,0.62735549 C3.98269645,0.696624476 3.98269645,0.808931693 3.91342747,0.878200679 L2.52140375,2.27040375 L3.91342747,3.66258228 C3.96884266,3.71799747 3.97992569,3.80095712 3.94667658,3.8673901 L3.91342747,3.91342747 C3.84415848,3.98269645 3.73185127,3.98269645 3.66258228,3.91342747 L3.66258228,3.91342747 L2.27040375,2.52140375 L0.878200679,3.91342747 C0.808931693,3.98269645 0.696624476,3.98269645 0.62735549,3.91342747 C0.558086504,3.84415848 0.558086504,3.73185127 0.62735549,3.66258228 L2.01940375,2.27040375 L0.62735549,0.878200679 C0.571940301,0.82278549 0.560857263,0.739825834 0.594106376,0.673392858 Z" id="Combined-Shape" fill-opacity="0.45" fill="#000000"></path>
                </g>
            </g>
        </g>
    </g>
</svg>