<svg width="102" height="58" xmlns="http://www.w3.org/2000/svg"><path d="M4 12l1.04-2.864h4.784L10.864 12h2L8.496.576H6.368L2 12h2zm5.264-4.4H5.6l1.808-5.008h.064L9.264 7.6zm8.24 4.624c1.072 0 1.936-.272 2.576-.8.656-.544 1.088-1.376 1.28-2.496h-1.808c-.144 1.2-.816 1.808-2.032 1.808-.704 0-1.232-.256-1.584-.752-.384-.512-.56-1.232-.56-2.144 0-.896.192-1.6.576-2.096.384-.512.912-.752 1.584-.752.544 0 .992.128 1.328.384.32.256.544.64.656 1.168h1.808c-.16-1.04-.576-1.808-1.232-2.32-.64-.48-1.488-.72-2.56-.72-1.296 0-2.304.432-3.024 1.296-.672.784-1.008 1.808-1.008 3.056 0 1.28.336 2.32 1.024 3.12.704.832 1.696 1.248 2.976 1.248zm9.52-.224v-1.504h-1.088c-.192 0-.32-.048-.416-.144-.096-.112-.128-.256-.128-.448V5.232h1.84V3.728h-1.84V1.056l-1.824.752v1.92H22.08v1.504h1.488v4.672c0 .672.16 1.168.48 1.52.336.384.864.576 1.584.576h1.392zm2.8-9.232c.352 0 .64-.112.88-.336a1.17 1.17 0 0 0 .368-.88c0-.352-.128-.64-.352-.864a1.272 1.272 0 0 0-.896-.336c-.352 0-.64.112-.88.336-.24.224-.352.512-.352.864s.112.64.352.88c.24.224.528.336.88.336zM30.736 12V3.728h-1.824V12h1.824zm6.256 0l3.056-8.272h-1.984l-1.984 6-1.984-6h-1.984L35.168 12h1.824zm7.696.224c1.104 0 2.016-.32 2.752-.944a3.757 3.757 0 0 0 1.152-1.936h-1.824c-.224.464-.464.8-.736 1.008-.352.256-.8.384-1.36.384-.656 0-1.168-.208-1.52-.608-.352-.4-.56-.992-.624-1.76h6.192c0-1.488-.336-2.656-.992-3.488-.72-.928-1.76-1.376-3.12-1.376-1.232 0-2.208.416-2.912 1.264-.736.832-1.088 1.856-1.088 3.088 0 1.376.384 2.448 1.152 3.232.72.752 1.696 1.136 2.928 1.136zm2.128-5.232H42.56c.112-.656.336-1.152.672-1.488.352-.352.816-.512 1.424-.512 1.28 0 2 .656 2.16 2zM60.4 12.224c1.504 0 2.672-.384 3.504-1.152.832-.784 1.248-1.92 1.248-3.408V.576H63.28v7.12c0 .992-.24 1.712-.688 2.192-.464.464-1.2.704-2.192.704-1.008 0-1.744-.24-2.192-.704-.464-.48-.688-1.2-.688-2.192V.576h-1.872v7.088c0 1.488.416 2.624 1.264 3.424.8.752 1.968 1.136 3.488 1.136zm10.064 0c2.48 0 3.728-.88 3.728-2.64 0-.736-.336-1.328-.992-1.744-.448-.304-1.152-.56-2.08-.784-.832-.208-1.376-.368-1.648-.48-.448-.192-.656-.432-.656-.688 0-.32.128-.544.416-.688.24-.144.608-.208 1.088-.208.56 0 .976.08 1.248.256.256.16.448.464.576.88h1.776c-.192-1.76-1.392-2.624-3.568-2.624-1.024 0-1.84.208-2.464.656-.64.416-.944 1.008-.944 1.776 0 .72.32 1.28.96 1.68.4.256 1.088.496 2.064.72.832.192 1.376.336 1.632.464.48.224.72.528.72.912 0 .672-.64 1.024-1.92 1.024-.608 0-1.04-.112-1.312-.304-.272-.224-.464-.592-.56-1.12h-1.776c.176 1.936 1.408 2.912 3.712 2.912zm8.768 0c1.104 0 2.016-.32 2.752-.944a3.757 3.757 0 0 0 1.152-1.936h-1.824c-.224.464-.464.8-.736 1.008-.352.256-.8.384-1.36.384-.656 0-1.168-.208-1.52-.608-.352-.4-.56-.992-.624-1.76h6.192c0-1.488-.336-2.656-.992-3.488-.72-.928-1.76-1.376-3.12-1.376-1.232 0-2.208.416-2.912 1.264-.736.832-1.088 1.856-1.088 3.088 0 1.376.384 2.448 1.152 3.232.72.752 1.696 1.136 2.928 1.136zm2.128-5.232h-4.256c.112-.656.336-1.152.672-1.488.352-.352.816-.512 1.424-.512 1.28 0 2 .656 2.16 2zM86.512 12V7.616c0-.704.208-1.264.656-1.696.384-.384.816-.56 1.296-.56.384 0 .768.048 1.184.176V3.712c-.288-.144-.64-.208-1.04-.208-.512 0-.944.144-1.312.448-.304.224-.56.544-.784.96V3.728h-1.808V12h1.808zm7.408.224c2.48 0 3.728-.88 3.728-2.64 0-.736-.336-1.328-.992-1.744-.448-.304-1.152-.56-2.08-.784-.832-.208-1.376-.368-1.648-.48-.448-.192-.656-.432-.656-.688 0-.32.128-.544.416-.688.24-.144.608-.208 1.088-.208.56 0 .976.08 1.248.256.256.16.448.464.576.88h1.776c-.192-1.76-1.392-2.624-3.568-2.624-1.024 0-1.84.208-2.464.656-.64.416-.944 1.008-.944 1.776 0 .72.32 1.28.96 1.68.4.256 1.088.496 2.064.72.832.192 1.376.336 1.632.464.48.224.72.528.72.912 0 .672-.64 1.024-1.92 1.024-.608 0-1.04-.112-1.312-.304-.272-.224-.464-.592-.56-1.12h-1.776c.176 1.936 1.408 2.912 3.712 2.912z" fill-opacity=".45"/><path d="M7.652 52V31.684H5.314l-4.84 3.609v2.475l4.731-3.405h.11V52h2.337zm13.713 0V31.684h-2.338l-4.84 3.609v2.475l4.731-3.405h.11V52h2.337zm19.168 0v-2.105h-9.447v-.178l5.633-6.508a87.635 87.635 0 0 0 1.401-1.634c.305-.369.647-.847 1.026-1.435.378-.588.642-1.144.792-1.668.15-.524.226-1.087.226-1.689 0-1.595-.57-2.914-1.709-3.958-1.14-1.043-2.639-1.565-4.498-1.565-1.95 0-3.49.574-4.621 1.722-1.13 1.149-1.695 2.539-1.695 4.17v.082h2.338v-.082c0-1.066.355-1.968 1.066-2.707.71-.738 1.663-1.107 2.857-1.107 1.121 0 2.042.326 2.762.977.72.652 1.08 1.53 1.08 2.632 0 .593-.132 1.192-.396 1.798-.265.606-.534 1.09-.807 1.45-.273.36-.66.822-1.162 1.387l-7.67 8.914V52h12.824zm4.32 5.66l3.022-8.135h-2.79l-2.05 8.135h1.819zm13.918-5.236c2.042 0 3.737-.554 5.086-1.661 1.35-1.108 2.024-2.546 2.024-4.314a5.35 5.35 0 0 0-.383-2.044c-.255-.624-.597-1.137-1.025-1.538a7.047 7.047 0 0 0-1.313-.984 5.147 5.147 0 0 0-1.353-.547v-.123c.364-.11.722-.278 1.073-.506a6.59 6.59 0 0 0 1.053-.868c.35-.351.635-.802.854-1.354.219-.551.328-1.15.328-1.798 0-1.039-.275-1.97-.827-2.795-.551-.825-1.301-1.47-2.249-1.935-.948-.465-2.019-.697-3.213-.697-1.786 0-3.277.512-4.47 1.538-1.195 1.025-1.792 2.322-1.792 3.89 0 1.194.338 2.176 1.012 2.946.675.77 1.427 1.296 2.256 1.579v.123a5.732 5.732 0 0 0-2.146 1.073 4.963 4.963 0 0 0-.971.985c-.274.369-.5.824-.677 1.367a5.474 5.474 0 0 0-.267 1.716c0 1.768.654 3.201 1.962 4.3 1.308 1.098 2.988 1.647 5.038 1.647zm.055-12.059c-1.14 0-2.085-.332-2.837-.998-.752-.665-1.128-1.517-1.128-2.556 0-1.03.376-1.867 1.128-2.51.752-.642 1.698-.963 2.837-.963 1.176 0 2.133.321 2.871.964.739.642 1.108 1.479 1.108 2.509 0 1.057-.374 1.914-1.121 2.57-.748.656-1.7.984-2.858.984zm0 10.008c-1.367 0-2.502-.37-3.404-1.107-.902-.739-1.354-1.696-1.354-2.871 0-1.176.452-2.133 1.354-2.872.902-.738 2.037-1.107 3.404-1.107s2.5.37 3.398 1.107c.897.739 1.346 1.696 1.346 2.872 0 1.175-.449 2.132-1.346 2.87-.898.739-2.03 1.108-3.398 1.108zm17.35 2.023c2.58 0 4.486-.92 5.721-2.761 1.235-1.841 1.853-4.608 1.853-8.3 0-1.594-.144-3-.43-4.217-.288-1.217-.655-2.19-1.101-2.919a6.211 6.211 0 0 0-1.62-1.79c-.634-.466-1.27-.778-1.908-.937a8.375 8.375 0 0 0-2.037-.24c-2.005 0-3.661.611-4.97 1.832-1.307 1.222-1.961 2.88-1.961 4.977 0 2.096.61 3.767 1.832 5.01 1.221 1.245 2.77 1.867 4.648 1.867 1.313 0 2.4-.303 3.26-.91a4.986 4.986 0 0 0 1.84-2.344h.136a18.736 18.736 0 0 1-.225 3.35c-.169 1.011-.454 1.92-.855 2.727-.4.807-.952 1.433-1.654 1.88-.702.447-1.527.67-2.475.67-.966 0-1.756-.198-2.372-.595-.615-.396-1-.872-1.155-1.428h-2.447c.155 1.175.754 2.157 1.798 2.946 1.043.788 2.417 1.182 4.122 1.182zm.369-9.584c-1.267 0-2.329-.403-3.186-1.21-.856-.806-1.285-1.97-1.285-3.493 0-1.458.424-2.618 1.272-3.48.847-.86 1.886-1.291 3.117-1.291 1.322 0 2.406.43 3.254 1.292.847.861 1.271 2.053 1.271 3.575 0 1.477-.433 2.614-1.299 3.411-.865.798-1.914 1.196-3.144 1.196zm17.432 9.64c2.087 0 3.796-.58 5.127-1.737 1.33-1.158 1.977-2.607 1.94-4.348a5.36 5.36 0 0 0-.491-2.119c-.301-.638-.684-1.142-1.149-1.51a6.973 6.973 0 0 0-1.408-.883 4.105 4.105 0 0 0-1.394-.382v-.137c.911-.155 1.775-.684 2.59-1.586.816-.902 1.206-2.019 1.17-3.35-.064-1.476-.675-2.707-1.833-3.691-1.157-.984-2.652-1.467-4.484-1.45-1.86.019-3.327.52-4.402 1.505-1.076.984-1.641 2.142-1.696 3.472h2.283c.055-.51.24-.984.554-1.422.315-.437.761-.793 1.34-1.066.579-.273 1.228-.41 1.948-.41 1.14 0 2.065.321 2.776.964.71.642 1.075 1.479 1.093 2.509 0 1.057-.366 1.932-1.1 2.625-.734.692-1.657 1.039-2.769 1.039h-2.078v2.105h2.215c1.294 0 2.354.351 3.179 1.053.825.702 1.237 1.622 1.237 2.762.018 1.175-.39 2.132-1.224 2.87-.834.739-1.952 1.099-3.356 1.08-1.203 0-2.206-.284-3.008-.854-.802-.57-1.253-1.269-1.353-2.098H87.44c.073 1.458.707 2.666 1.9 3.623 1.195.957 2.74 1.435 4.636 1.435z" fill-opacity=".85"/></svg>