<svg width="100" height="118" xmlns="http://www.w3.org/2000/svg"><g fill="none" fill-rule="evenodd"><text font-family="PingFangSC-Regular, PingFang SC" font-size="9.18" fill="#000" fill-opacity=".45" transform="translate(0 90.492)"><tspan x="26.23" y="10.656">Waiting</tspan></text><g transform="translate(0 90.492)"><circle stroke-opacity=".15" stroke="#000" stroke-width=".656" cx="7.869" cy="7.869" r="7.541"/><text font-family="PingFangSC-Regular, PingFang SC" font-size="9.18" fill="#000" fill-opacity=".25"><tspan x="5.443" y="10.656">3</tspan></text></g><text font-family="PingFangSC-Regular, PingFang SC" font-size="7.869" fill="#000" fill-opacity=".45" transform="translate(0 90.492)"><tspan x="26.23" y="24.393">This is a description</tspan></text><text font-family="PingFangSC-Regular, PingFang SC" font-size="7.869" fill="#000" fill-opacity=".45" transform="translate(0 45.246)"><tspan x="26.23" y="24.393">This is a description</tspan></text><text font-family="PingFangSC-Medium, PingFang SC" font-size="9.18" font-weight="400" fill="#000" fill-opacity=".85" transform="translate(0 45.246)"><tspan x="26.23" y="10.656">In Progress</tspan></text><path fill-opacity=".15" fill="#000" d="M7.869 64.918h1v21.639h-1z"/><g transform="translate(0 45.246)"><circle fill="#699937" cx="7.869" cy="7.869" r="7.869"/><text font-family="PingFangSC-Regular, PingFang SC" font-size="9.18" fill="#FFF"><tspan x="5.443" y="10.656">2</tspan></text></g><text font-family="PingFangSC-Regular, PingFang SC" font-size="9.18" fill="#000" fill-opacity=".65"><tspan x="26.23" y="10.656">Finished</tspan></text><path fill="#699937" d="M7.869 19.672h1v21.639h-1z"/><path d="M7.869.328a7.517 7.517 0 0 0-5.332 2.209 7.517 7.517 0 0 0-2.21 5.332c0 2.082.845 3.967 2.21 5.332a7.517 7.517 0 0 0 5.332 2.209A7.517 7.517 0 0 0 13.2 13.2a7.517 7.517 0 0 0 2.21-5.33 7.517 7.517 0 0 0-2.21-5.333A7.517 7.517 0 0 0 7.87.327z" stroke="#699937" stroke-width=".656"/><path d="M3.934 3.934h7.869v7.869H3.934z"/><path d="M11.193 5.25a.368.368 0 0 1 .028.52l-4.4 4.886a.367.367 0 0 1-.203.116l-.02.002a.364.364 0 0 1-.338-.115L4.522 8.73a.369.369 0 1 1 .549-.493l1.468 1.63 4.133-4.59a.369.369 0 0 1 .521-.027z" fill="#699937"/><text font-family="PingFangSC-Regular, PingFang SC" font-size="7.869" fill="#000" fill-opacity=".45"><tspan x="26.23" y="24.393">This is a description</tspan></text></g></svg>