<svg width="168" height="104" xmlns="http://www.w3.org/2000/svg"><g fill="none" fill-rule="evenodd"><rect width="1.494" height="99.771" rx=".747" transform="translate(3.24 2.228)" fill="#E9E9E9"/><path d="M14.885 102.54v-3.217h2.313c.415 0 .72.046.914.138.34.166.523.495.546.985l.062 1.251c.013.293.03.49.05.592a.95.95 0 0 0 .082.25h1.246v-.168c-.156-.068-.265-.221-.327-.46a3.092 3.092 0 0 1-.071-.638l-.036-1.006c-.017-.435-.1-.75-.247-.944-.149-.194-.369-.35-.662-.47a2.01 2.01 0 0 0 .779-.69c.185-.285.278-.653.278-1.102 0-.861-.352-1.452-1.057-1.772-.37-.166-.842-.25-1.414-.25H13.87v7.5h1.016zm2.349-4.065h-2.349v-2.563h2.482c.347 0 .624.051.832.153.388.194.582.559.582 1.093 0 .497-.139.84-.416 1.031-.278.191-.655.286-1.131.286zm6.076 4.258c.279 0 .529-.027.75-.081.412-.096.758-.28 1.037-.552a2.38 2.38 0 0 0 .451-.605 1.89 1.89 0 0 0 .238-.671h-.904a1.6 1.6 0 0 1-.347.638c-.286.317-.669.475-1.149.475-.514 0-.893-.168-1.138-.503-.245-.335-.376-.78-.393-1.335h4.007c0-.552-.027-.953-.081-1.205a2.44 2.44 0 0 0-.368-.965c-.19-.29-.468-.525-.832-.707a2.494 2.494 0 0 0-1.128-.273c-.77 0-1.393.274-1.87.822-.476.548-.714 1.26-.714 2.139 0 .892.237 1.585.71 2.08a2.3 2.3 0 0 0 1.73.743zm1.608-3.364H21.88c.017-.47.169-.857.454-1.162a1.4 1.4 0 0 1 1.062-.457c.59 0 1.01.222 1.262.664.136.238.222.557.26.955zm3.017 3.17v-7.5h-.919v7.5h.92zm3.513.194c.28 0 .53-.027.75-.081.412-.096.758-.28 1.037-.552.167-.156.317-.358.452-.605.134-.246.214-.47.237-.671h-.903a1.6 1.6 0 0 1-.348.638c-.285.317-.668.475-1.148.475-.514 0-.894-.168-1.139-.503-.245-.335-.376-.78-.393-1.335h4.008c0-.552-.027-.953-.082-1.205a2.44 2.44 0 0 0-.367-.965c-.191-.29-.468-.525-.833-.707a2.494 2.494 0 0 0-1.128-.273c-.77 0-1.392.274-1.869.822-.476.548-.714 1.26-.714 2.139 0 .892.236 1.585.71 2.08.472.496 1.05.743 1.73.743zm1.608-3.364h-3.038c.018-.47.169-.857.455-1.162a1.4 1.4 0 0 1 1.062-.457c.589 0 1.01.222 1.261.664.136.238.223.557.26.955zm3.544 3.354c.422 0 .808-.09 1.159-.27.35-.18.62-.394.806-.639a1.3 1.3 0 0 0 .159.506c.143.225.372.337.689.337.13 0 .231-.005.306-.015a2.56 2.56 0 0 0 .327-.077v-.68a2.207 2.207 0 0 1-.301.032c-.126 0-.209-.03-.248-.087a.403.403 0 0 1-.059-.23v-3.15c0-.518-.199-.899-.597-1.144-.402-.245-.924-.368-1.567-.368-.555 0-1.043.132-1.463.396-.42.264-.64.733-.656 1.407h.858c.034-.283.107-.495.22-.638.2-.26.54-.388 1.02-.388.416 0 .735.07.958.211.223.142.334.369.334.682 0 .153-.02.27-.061.352-.072.15-.213.239-.424.266l-1.465.184c-.514.064-.93.236-1.246.515-.317.28-.475.673-.475 1.18 0 .463.16.848.482 1.156.322.308.737.462 1.244.462zm.214-.78a1.09 1.09 0 0 1-.69-.23.757.757 0 0 1-.29-.629c0-.35.141-.606.424-.766.166-.095.417-.165.75-.209l.557-.071c.17-.02.343-.055.52-.102.177-.048.322-.108.434-.18v.741c0 .565-.255.972-.765 1.22-.303.15-.616.225-.94.225zm6.066.806c.755 0 1.318-.177 1.687-.531.37-.354.554-.775.554-1.261 0-.504-.179-.873-.536-1.108-.225-.15-.667-.305-1.327-.465l-.608-.148a2.137 2.137 0 0 1-.603-.225c-.234-.143-.352-.333-.352-.571 0-.218.09-.394.268-.526.179-.133.442-.2.79-.2.52 0 .886.121 1.097.363.13.17.202.36.22.567h.867a1.573 1.573 0 0 0-.332-.99c-.364-.484-.958-.726-1.781-.726-.63 0-1.131.16-1.504.48-.373.32-.56.739-.56 1.256 0 .44.198.783.593 1.032.221.143.565.272 1.031.388l.73.183c.392.1.654.186.787.26a.587.587 0 0 1 .311.537c0 .31-.13.539-.388.687a1.777 1.777 0 0 1-.898.222c-.572 0-.974-.148-1.205-.445-.126-.163-.203-.398-.23-.704h-.883c.023.545.205 1.001.543 1.37.34.37.915.555 1.729.555zm5.427-.016c.28 0 .53-.027.75-.081.412-.096.758-.28 1.037-.552.167-.156.317-.358.452-.605.134-.246.213-.47.237-.671h-.903a1.6 1.6 0 0 1-.348.638c-.286.317-.668.475-1.148.475-.514 0-.894-.168-1.139-.503-.245-.335-.376-.78-.393-1.335h4.008c0-.552-.027-.953-.082-1.205a2.44 2.44 0 0 0-.367-.965c-.191-.29-.468-.525-.833-.707a2.494 2.494 0 0 0-1.128-.273c-.77 0-1.392.274-1.869.822-.476.548-.714 1.26-.714 2.139 0 .892.236 1.585.71 2.08.472.496 1.05.743 1.73.743zm1.608-3.364h-3.038c.017-.47.169-.857.455-1.162a1.4 1.4 0 0 1 1.062-.457c.589 0 1.01.222 1.26.664.137.238.224.557.261.955zm9.65 3.17v-.868h-3.993c.089-.36.303-.689.644-.985a4.53 4.53 0 0 1 .786-.526l.7-.388c.616-.344 1.043-.636 1.281-.878.412-.415.618-.916.618-1.501 0-.555-.193-1.059-.58-1.511-.386-.453-.998-.68-1.835-.68-1.008 0-1.71.355-2.109 1.063-.224.401-.342.92-.352 1.557h.934c.014-.453.085-.807.215-1.062.241-.477.677-.715 1.307-.715.425 0 .766.125 1.02.375.256.25.384.588.384 1.014 0 .364-.14.687-.419.97-.177.18-.485.398-.924.653l-.98.567c-.657.381-1.099.805-1.325 1.271-.227.467-.357 1.015-.39 1.644h5.018zm3.293.2c.974 0 1.675-.467 2.104-1.4.296-.65.444-1.472.444-2.465 0-1.049-.163-1.874-.49-2.477-.422-.78-1.106-1.169-2.053-1.169-1.051 0-1.778.555-2.18 1.665-.214.595-.321 1.308-.321 2.139 0 1.072.178 1.926.536 2.563.429.762 1.082 1.144 1.96 1.144zm-.005-.838c-.592 0-1.01-.345-1.256-1.036-.16-.453-.24-1.052-.24-1.797 0-.99.125-1.74.375-2.25.25-.508.646-.763 1.187-.763.59 0 .986.268 1.19.804.204.536.306 1.22.306 2.05 0 1.15-.14 1.937-.423 2.36-.283.421-.662.632-1.139.632zm6.699.638v-7.28h-.725c-.13.565-.325.923-.587 1.074-.262.152-.725.26-1.39.325v.704h1.721v5.177h.98zm4.8.184c.935 0 1.617-.264 2.044-.791.427-.528.64-1.137.64-1.828 0-.664-.232-1.212-.699-1.644-.466-.432-1.035-.648-1.705-.648-.357 0-.672.056-.945.168a2.283 2.283 0 0 0-.485.291l.312-2.032h3.11v-.888h-3.8l-.556 3.936.796.046a1.74 1.74 0 0 1 .58-.51c.226-.123.498-.184.814-.184.436 0 .81.14 1.121.418.311.28.467.674.467 1.185 0 .422-.13.807-.393 1.154-.262.347-.665.52-1.21.52a1.75 1.75 0 0 1-.756-.153c-.425-.2-.668-.563-.73-1.087h-.955c.055.694.311 1.209.769 1.544.458.336.984.503 1.58.503zm6.126-2.624v-.945h-2.563v.945h2.563zm3.308 2.64c.974 0 1.675-.467 2.104-1.4.296-.65.444-1.472.444-2.465 0-1.049-.163-1.874-.49-2.477-.422-.78-1.106-1.169-2.052-1.169-1.052 0-1.779.555-2.18 1.665-.215.595-.322 1.308-.322 2.139 0 1.072.178 1.926.536 2.563.429.762 1.082 1.144 1.96 1.144zm-.005-.838c-.592 0-1.01-.345-1.256-1.036-.16-.453-.24-1.052-.24-1.797 0-.99.125-1.74.376-2.25.25-.508.645-.763 1.187-.763.589 0 .985.268 1.19.804.204.536.306 1.22.306 2.05 0 1.15-.142 1.937-.424 2.36-.283.421-.662.632-1.139.632zm5.642.843c1.065 0 1.821-.576 2.267-1.726.269-.691.403-1.484.403-2.38 0-.792-.112-1.453-.337-1.98-.405-.96-1.14-1.44-2.205-1.44-.79 0-1.387.252-1.792.756a2.714 2.714 0 0 0-.608 1.75c0 .692.205 1.257.615 1.696.41.439.968.658 1.672.658.348 0 .672-.065.973-.196.301-.131.554-.358.758-.682-.13 1.12-.349 1.863-.658 2.229-.31.366-.685.549-1.124.549a1.3 1.3 0 0 1-.633-.153c-.364-.194-.56-.545-.587-1.052h-.93c0 .565.186 1.035.557 1.409.371.374.914.562 1.63.562zm.138-3.472c-.507 0-.877-.14-1.108-.421-.231-.281-.347-.66-.347-1.136 0-.504.132-.907.395-1.208.264-.301.62-.452 1.07-.452.419 0 .763.132 1.034.396.27.264.406.664.406 1.202 0 .6-.15 1.019-.452 1.259-.301.24-.634.36-.998.36zm6.03.827v-.945h-2.563v.945h2.563zm4.186 2.44v-7.28h-.725c-.129.565-.325.923-.587 1.074-.262.152-.725.26-1.389.325v.704h1.721v5.177h.98zm4.938.2c.973 0 1.674-.467 2.103-1.4.296-.65.444-1.472.444-2.465 0-1.049-.163-1.874-.49-2.477-.422-.78-1.106-1.169-2.052-1.169-1.052 0-1.779.555-2.18 1.665-.215.595-.322 1.308-.322 2.139 0 1.072.179 1.926.536 2.563.429.762 1.082 1.144 1.96 1.144zm-.006-.838c-.592 0-1.01-.345-1.256-1.036-.16-.453-.24-1.052-.24-1.797 0-.99.126-1.74.376-2.25.25-.508.646-.763 1.187-.763.589 0 .985.268 1.19.804.204.536.306 1.22.306 2.05 0 1.15-.141 1.937-.424 2.36-.282.421-.662.632-1.139.632z" fill-opacity=".65" fill="#000" fill-rule="nonzero"/><circle cx="2.988" cy="2.988" r="2.988" transform="translate(1 96.336)" fill="#FFF" stroke="#699937" stroke-width="1.494"/><path d="M16.677 71.17v-6.607h2.528v-.893h-6.086v.893h2.527v6.607h1.031zm4.31.194c.279 0 .529-.027.75-.082a2.146 2.146 0 0 0 1.037-.551c.166-.157.317-.358.451-.605.135-.247.214-.47.238-.671h-.904a1.6 1.6 0 0 1-.347.638c-.286.316-.669.475-1.149.475-.514 0-.893-.168-1.138-.503-.246-.336-.377-.78-.394-1.335h4.008c0-.552-.027-.953-.081-1.205a2.44 2.44 0 0 0-.368-.965c-.19-.29-.468-.525-.832-.707a2.494 2.494 0 0 0-1.128-.274c-.77 0-1.393.274-1.87.822-.476.548-.714 1.262-.714 2.14 0 .891.237 1.585.71 2.08a2.3 2.3 0 0 0 1.73.743zM22.595 68h-3.038c.017-.47.168-.856.454-1.161.286-.305.64-.457 1.062-.457.59 0 1.01.221 1.261.664.137.238.223.556.26.954zm4.049 3.33c.636 0 1.159-.168 1.567-.504.409-.335.664-.865.766-1.59h-.894c-.085.405-.239.724-.462.957-.223.234-.525.35-.906.35-.497 0-.861-.187-1.092-.561-.232-.375-.348-.836-.348-1.384 0-.545.082-1.003.245-1.374.252-.571.67-.857 1.256-.857.43 0 .74.111.935.334.194.223.318.503.372.84h.894c-.078-.732-.31-1.248-.697-1.547-.386-.3-.888-.45-1.504-.45-.721 0-1.315.268-1.781.802-.467.535-.7 1.282-.7 2.242 0 .783.213 1.435.638 1.958.426.522.996.783 1.71.783zm4.171-.159v-2.9c0-.728.155-1.224.465-1.486.31-.262.655-.393 1.036-.393.46 0 .773.15.94.45.102.187.153.481.153.883v3.446h.944v-3.507c0-.538-.076-.959-.23-1.262-.282-.554-.82-.832-1.613-.832-.442 0-.812.097-1.108.291-.173.113-.37.307-.587.582v-2.798h-.919v7.526h.919zm5.815 0v-2.864c0-.358.023-.632.07-.825.045-.192.145-.378.298-.559a1.38 1.38 0 0 1 .664-.45c.14-.043.318-.065.536-.065.429 0 .725.17.888.51.099.204.148.473.148.807v3.446h.935v-3.507c0-.552-.075-.976-.225-1.272-.272-.541-.797-.812-1.573-.812-.354 0-.675.07-.965.21-.289.14-.563.369-.822.689v-.776h-.873v5.468h.92zm5.831-6.459V63.67h-.934v1.041h.934zm0 6.46v-5.444h-.934v5.443h.934zm3.365.157c.636 0 1.159-.167 1.567-.503.409-.335.664-.865.766-1.59h-.894c-.085.405-.239.724-.462.957-.223.234-.525.35-.906.35-.497 0-.861-.187-1.092-.561-.232-.375-.348-.836-.348-1.384 0-.545.082-1.003.245-1.374.252-.571.671-.857 1.256-.857.43 0 .74.111.935.334.194.223.318.503.372.84h.894c-.078-.732-.31-1.248-.697-1.547-.386-.3-.887-.45-1.504-.45-.721 0-1.315.268-1.781.802-.467.535-.7 1.282-.7 2.242 0 .783.213 1.435.638 1.958.426.522.996.783 1.71.783zm4.722.026c.423 0 .809-.09 1.16-.27.35-.181.619-.394.806-.639a1.3 1.3 0 0 0 .158.506c.143.224.373.337.69.337.129 0 .231-.006.306-.016a2.56 2.56 0 0 0 .327-.076v-.68a2.207 2.207 0 0 1-.301.031c-.126 0-.209-.029-.248-.087a.403.403 0 0 1-.059-.23v-3.15c0-.517-.199-.898-.597-1.143-.402-.245-.924-.368-1.568-.368-.554 0-1.042.132-1.462.396-.42.264-.64.733-.656 1.406h.857c.034-.282.107-.495.22-.638.2-.258.541-.388 1.021-.388.415 0 .734.07.957.212.223.141.335.369.335.682a.79.79 0 0 1-.062.352c-.071.15-.212.238-.423.266l-1.466.183c-.514.065-.929.237-1.245.516-.317.28-.475.672-.475 1.18 0 .462.16.848.482 1.156.322.308.736.462 1.243.462zm.215-.781c-.266 0-.495-.077-.69-.23a.757.757 0 0 1-.29-.628c0-.35.14-.606.423-.766.167-.095.417-.165.75-.21l.557-.07c.17-.021.344-.055.521-.103.177-.047.322-.107.434-.178v.74c0 .565-.255.972-.766 1.22-.303.15-.616.225-.94.225zm5.075.597v-7.5h-.92v7.5h.92zm5.57.087c.133 0 .256-.007.37-.02.114-.014.224-.036.33-.067v-.725a2.743 2.743 0 0 1-.322.015c-.167 0-.286-.018-.357-.056-.13-.064-.194-.192-.194-.383v-3.569h.873v-.75h-.873v-1.527h-.93v1.527h-.74v.75h.74v3.62c0 .351.077.636.23.856.153.22.444.329.873.329zm3.753.107c.279 0 .53-.027.75-.082a2.142 2.142 0 0 0 1.037-.551 2.4 2.4 0 0 0 .452-.605c.134-.247.213-.47.237-.671h-.904a1.6 1.6 0 0 1-.347.638c-.286.316-.669.475-1.149.475-.514 0-.893-.168-1.138-.503-.245-.336-.376-.78-.393-1.335h4.008c0-.552-.028-.953-.082-1.205a2.44 2.44 0 0 0-.368-.965c-.19-.29-.468-.525-.832-.707a2.494 2.494 0 0 0-1.128-.274c-.77 0-1.392.274-1.869.822-.476.548-.715 1.262-.715 2.14 0 .891.237 1.585.71 2.08a2.3 2.3 0 0 0 1.73.743zM66.769 68h-3.038c.017-.47.169-.856.455-1.161.286-.305.64-.457 1.062-.457.589 0 1.009.221 1.26.664.137.238.224.556.261.954zm4.008 3.38c.756 0 1.318-.177 1.688-.53.369-.355.554-.775.554-1.262 0-.503-.18-.873-.537-1.108-.224-.15-.667-.304-1.327-.464l-.608-.148c-.265-.065-.466-.14-.602-.225-.235-.143-.352-.333-.352-.572 0-.218.089-.393.268-.526.178-.132.441-.199.788-.199.521 0 .887.121 1.098.363.13.17.203.359.22.566h.868a1.573 1.573 0 0 0-.332-.99c-.364-.483-.958-.725-1.782-.725-.63 0-1.13.16-1.504.48-.372.32-.559.739-.559 1.256 0 .439.198.783.593 1.031.22.143.565.273 1.03.388l.731.184c.391.099.654.186.786.26a.587.587 0 0 1 .312.537c0 .31-.13.538-.388.686a1.777 1.777 0 0 1-.899.222c-.572 0-.973-.148-1.205-.444-.126-.163-.202-.398-.23-.704h-.883c.024.544.205 1.001.544 1.37.339.37.915.554 1.728.554zm4.58-.122c.133 0 .256-.007.37-.02.114-.014.224-.036.33-.067v-.725a2.743 2.743 0 0 1-.322.015c-.167 0-.286-.018-.358-.056-.129-.064-.194-.192-.194-.383v-3.569h.873v-.75h-.873v-1.527h-.929v1.527h-.74v.75h.74v3.62c0 .351.077.636.23.856.153.22.444.329.873.329zm2.553-6.546V63.67h-.935v1.041h.935zm0 6.46v-5.444h-.935v5.443h.935zm2.308 0v-2.865c0-.358.023-.632.068-.825.046-.192.146-.378.3-.559a1.38 1.38 0 0 1 .663-.45c.14-.043.318-.065.536-.065.429 0 .725.17.888.51.1.204.148.473.148.807v3.446h.935v-3.507c0-.552-.075-.976-.225-1.272-.272-.541-.796-.812-1.572-.812-.354 0-.676.07-.965.21-.29.14-.564.369-.822.689v-.776h-.873v5.468h.919zm6.862 2.312c1.058 0 1.778-.371 2.16-1.113.203-.402.306-.95.306-1.644v-4.973h-.848v.69a2.523 2.523 0 0 0-.53-.522 1.993 1.993 0 0 0-1.124-.316c-.633 0-1.174.257-1.621.77-.448.515-.672 1.23-.672 2.145 0 .97.222 1.666.667 2.086.444.42.962.63 1.554.63.426 0 .768-.068 1.027-.204a1.8 1.8 0 0 0 .663-.623c.01.753-.049 1.275-.178 1.568-.218.497-.68.745-1.384.745-.446 0-.773-.102-.98-.306-.133-.133-.222-.322-.266-.567h-.934c.048.562.272.975.674 1.238.401.264.897.396 1.486.396zm0-2.997c-.423 0-.759-.16-1.009-.483-.25-.321-.375-.79-.375-1.406 0-.524.063-.948.189-1.271.238-.606.68-.91 1.327-.91.433 0 .788.164 1.067.49.28.328.42.83.42 1.507 0 .45-.076.842-.226 1.18-.268.595-.733.893-1.393.893zm11.426.684v-.868h-3.993c.089-.36.303-.69.644-.985a4.53 4.53 0 0 1 .786-.526l.7-.388c.616-.344 1.043-.637 1.281-.878.412-.416.618-.916.618-1.501 0-.555-.193-1.059-.58-1.512-.386-.452-.998-.679-1.835-.679-1.008 0-1.71.354-2.109 1.062-.224.402-.342.921-.352 1.557h.934c.014-.452.085-.806.215-1.062.241-.476.677-.714 1.307-.714.425 0 .766.125 1.02.375.256.25.384.588.384 1.013 0 .365-.14.688-.419.97-.177.18-.485.399-.924.654l-.98.567c-.657.381-1.099.805-1.325 1.271-.227.466-.357 1.014-.39 1.644h5.018zm3.293.2c.974 0 1.675-.467 2.104-1.4.296-.65.444-1.472.444-2.466 0-1.048-.163-1.874-.49-2.476-.422-.78-1.106-1.17-2.053-1.17-1.051 0-1.778.556-2.18 1.665-.214.596-.321 1.309-.321 2.14 0 1.072.178 1.926.536 2.563.429.762 1.082 1.143 1.96 1.143zm-.005-.838c-.592 0-1.01-.346-1.256-1.037-.16-.452-.24-1.051-.24-1.797 0-.99.125-1.74.375-2.249.25-.509.646-.763 1.188-.763.588 0 .985.268 1.19.804.203.536.305 1.22.305 2.05 0 1.15-.14 1.937-.423 2.359-.283.422-.662.633-1.139.633zm6.699.638v-7.28h-.725c-.13.564-.325.923-.587 1.074-.262.152-.725.26-1.39.324v.705h1.721v5.177h.98zm4.8.184c.935 0 1.617-.264 2.044-.791.427-.528.64-1.137.64-1.828 0-.664-.232-1.212-.699-1.644-.466-.433-1.035-.649-1.705-.649-.357 0-.672.056-.945.169a2.283 2.283 0 0 0-.485.29l.312-2.031h3.11v-.889h-3.8l-.556 3.937.796.046a1.74 1.74 0 0 1 .58-.51c.226-.123.498-.185.814-.185.436 0 .81.14 1.121.42.311.278.467.673.467 1.184 0 .422-.13.806-.393 1.153-.262.348-.665.521-1.21.521a1.75 1.75 0 0 1-.756-.153c-.425-.2-.668-.563-.73-1.087h-.954c.054.694.31 1.209.768 1.544.458.335.984.503 1.58.503zm6.126-2.624v-.945h-2.563v.945h2.563zm3.308 2.64c.974 0 1.675-.467 2.104-1.4.296-.65.444-1.472.444-2.466 0-1.048-.163-1.874-.49-2.476-.422-.78-1.106-1.17-2.052-1.17-1.052 0-1.779.556-2.18 1.665-.215.596-.322 1.309-.322 2.14 0 1.072.178 1.926.536 2.563.429.762 1.082 1.143 1.96 1.143zm-.005-.838c-.592 0-1.01-.346-1.256-1.037-.16-.452-.24-1.051-.24-1.797 0-.99.125-1.74.376-2.249.25-.509.645-.763 1.187-.763.589 0 .985.268 1.19.804.204.536.306 1.22.306 2.05 0 1.15-.142 1.937-.424 2.359-.283.422-.662.633-1.139.633zm5.642.842c1.065 0 1.821-.575 2.267-1.725.269-.691.403-1.484.403-2.38 0-.793-.112-1.453-.337-1.98-.405-.96-1.14-1.44-2.205-1.44-.79 0-1.387.251-1.792.755a2.714 2.714 0 0 0-.608 1.751c0 .691.205 1.256.615 1.696.41.439.968.658 1.672.658.348 0 .672-.065.973-.196.301-.131.554-.359.758-.682-.13 1.12-.349 1.863-.658 2.229-.31.366-.685.548-1.124.548a1.3 1.3 0 0 1-.633-.153c-.364-.194-.56-.544-.587-1.051h-.93c0 .565.186 1.034.557 1.409.371.374.914.561 1.63.561zm.138-3.472c-.507 0-.877-.14-1.108-.42-.231-.282-.347-.66-.347-1.137 0-.504.132-.906.396-1.207.263-.301.62-.452 1.07-.452.418 0 .762.132 1.033.396.27.263.406.664.406 1.202 0 .6-.15 1.019-.452 1.259-.301.24-.634.36-.998.36zm6.03.828v-.945h-2.563v.945h2.563zm3.308 2.64c.974 0 1.675-.467 2.104-1.4.296-.65.444-1.472.444-2.466 0-1.048-.163-1.874-.49-2.476-.422-.78-1.106-1.17-2.053-1.17-1.051 0-1.778.556-2.18 1.665-.214.596-.321 1.309-.321 2.14 0 1.072.178 1.926.536 2.563.429.762 1.082 1.143 1.96 1.143zm-.005-.838c-.592 0-1.01-.346-1.256-1.037-.16-.452-.24-1.051-.24-1.797 0-.99.125-1.74.375-2.249.25-.509.646-.763 1.188-.763.588 0 .985.268 1.19.804.203.536.305 1.22.305 2.05 0 1.15-.14 1.937-.423 2.359-.283.422-.662.633-1.139.633zm5.713.837c.845 0 1.496-.22 1.956-.658.46-.44.69-1.008.69-1.706 0-.435-.109-.804-.325-1.105a1.586 1.586 0 0 0-.901-.61c.238-.099.432-.235.582-.409.241-.279.362-.643.362-1.092 0-.63-.204-1.11-.612-1.443-.409-.331-.986-.497-1.731-.497-.943 0-1.602.34-1.976 1.02-.218.382-.327.845-.327 1.39h.909c.017-.416.09-.736.22-.96.234-.409.658-.613 1.27-.613.345 0 .646.099.905.296.258.197.388.478.388.842 0 .49-.194.831-.582 1.022-.222.109-.504.163-.848.163a3.998 3.998 0 0 1-.45-.026v.812a7.497 7.497 0 0 1 .378-.01c.548 0 .977.1 1.285.301.308.201.462.553.462 1.057 0 .409-.147.742-.44 1-.292.26-.68.389-1.164.389-.622 0-1.053-.192-1.291-.577-.136-.214-.225-.558-.266-1.031h-.96c0 .68.195 1.258.585 1.733.39.475 1.017.712 1.881.712z" fill-opacity=".65" fill="#000" fill-rule="nonzero"/><circle cx="2.988" cy="2.988" r="2.988" transform="translate(1 64.967)" fill="#FFF" stroke="#699937" stroke-width="1.494"/><path d="M16.422 40.02c.8 0 1.502-.178 2.106-.536.604-.357.906-.951.906-1.782 0-.667-.238-1.176-.714-1.526-.276-.201-.668-.36-1.175-.475l-1.051-.24c-.708-.163-1.163-.3-1.364-.408-.306-.17-.46-.44-.46-.807 0-.334.132-.626.394-.878s.693-.378 1.292-.378c.742 0 1.268.196 1.577.587.167.214.276.522.327.924h.955c0-.834-.275-1.44-.825-1.82-.55-.38-1.217-.57-2.004-.57-.854 0-1.514.217-1.98.65-.467.431-.7.984-.7 1.658 0 .623.238 1.091.715 1.405.275.18.745.345 1.409.495l1.016.23c.551.125.956.274 1.215.444.255.173.383.464.383.873 0 .544-.303.922-.909 1.133-.313.11-.66.164-1.041.164-.851 0-1.445-.249-1.782-.746-.177-.265-.278-.61-.302-1.036h-.954c-.01.81.248 1.451.776 1.925.527.476 1.257.714 2.19.714zm6.26-.02c.902 0 1.567-.288 1.996-.863.429-.575.643-1.304.643-2.185 0-.912-.243-1.603-.73-2.073s-1.082-.705-1.787-.705c-.786 0-1.412.273-1.879.817-.466.545-.7 1.277-.7 2.196 0 .857.222 1.54.665 2.05.442.509 1.04.763 1.792.763zm.086-.791c-.554 0-.96-.194-1.215-.582-.255-.389-.383-.874-.383-1.456 0-.605.128-1.123.383-1.552.256-.429.664-.643 1.226-.643.633 0 1.079.252 1.337.756.164.32.245.735.245 1.245a3.44 3.44 0 0 1-.34 1.54c-.225.461-.643.692-1.253.692zm4.59.592v-7.5h-.919v7.5h.92zm3.758 0l2.063-5.468h-1.006l-1.527 4.452-1.46-4.452H28.12l2.017 5.468h.98zm4.983.194c.28 0 .53-.027.75-.082a2.137 2.137 0 0 0 1.037-.551c.167-.157.318-.359.452-.605.135-.247.214-.47.238-.672h-.904a1.6 1.6 0 0 1-.347.639c-.286.316-.67.474-1.15.474-.513 0-.893-.167-1.138-.503-.245-.335-.376-.78-.393-1.335h4.008c0-.551-.027-.953-.081-1.205a2.44 2.44 0 0 0-.368-.965c-.19-.289-.468-.525-.832-.707a2.494 2.494 0 0 0-1.129-.273c-.769 0-1.392.274-1.868.822-.477.548-.715 1.261-.715 2.14 0 .891.236 1.585.71 2.08.473.495 1.05.743 1.73.743zm1.609-3.365H34.67c.017-.47.168-.857.454-1.161.286-.305.64-.457 1.062-.457.589 0 1.01.22 1.261.663.136.239.223.557.26.955zm5.912-3.288v-1.041h-.934v1.041h.934zm0 6.459v-5.443h-.934v5.443h.934zm2.308 0v-2.864c0-.358.023-.633.069-.825.046-.192.145-.379.298-.56a1.38 1.38 0 0 1 .664-.448c.14-.045.318-.067.536-.067.43 0 .725.17.889.51.098.205.148.474.148.807v3.447h.934v-3.508c0-.551-.075-.975-.225-1.271-.272-.541-.796-.812-1.572-.812-.354 0-.676.07-.965.21-.29.139-.563.369-.822.689v-.776h-.873V39.8h.919zm5.83-6.459v-1.041h-.934v1.041h.934zm0 6.459v-5.443h-.934v5.443h.934zm2.676.087c.133 0 .256-.007.37-.02.114-.014.224-.037.33-.067v-.725a2.743 2.743 0 0 1-.322.015c-.167 0-.286-.019-.358-.056-.13-.065-.194-.192-.194-.383v-3.569h.873v-.75h-.873v-1.527h-.929v1.527h-.74v.75h.74v3.62c0 .35.077.636.23.855.153.22.444.33.873.33zm2.553-6.546v-1.041h-.935v1.041h.935zm0 6.459v-5.443h-.935v5.443h.935zm2.859.184c.422 0 .808-.09 1.159-.271.35-.18.62-.393.807-.638a1.3 1.3 0 0 0 .158.505c.143.225.373.337.69.337.128 0 .23-.005.305-.015a2.56 2.56 0 0 0 .327-.077v-.679a2.207 2.207 0 0 1-.301.03c-.126 0-.209-.028-.248-.086a.403.403 0 0 1-.058-.23v-3.15c0-.517-.2-.898-.598-1.143-.401-.246-.924-.368-1.567-.368-.555 0-1.043.132-1.463.396-.42.263-.639.732-.656 1.406h.858c.034-.282.107-.495.22-.638.2-.259.54-.388 1.02-.388.416 0 .735.07.958.212.223.141.334.368.334.681 0 .154-.02.271-.061.353-.072.15-.213.238-.424.265l-1.465.184c-.514.065-.93.237-1.246.516-.317.279-.475.672-.475 1.18 0 .462.161.848.483 1.156.321.308.736.462 1.243.462zm.214-.782c-.265 0-.495-.076-.689-.23a.757.757 0 0 1-.291-.627c0-.35.141-.606.424-.766.167-.095.417-.165.75-.21l.557-.071c.17-.02.344-.054.52-.102a1.57 1.57 0 0 0 .435-.179v.74c0 .566-.256.972-.766 1.22-.303.15-.616.225-.94.225zm5.075.598v-7.5h-.919v7.5h.92zm5.132 2.18v-2.793c.2.249.382.424.546.526.279.18.624.27 1.036.27.525 0 .984-.161 1.379-.484.623-.511.934-1.362.934-2.553 0-.882-.216-1.56-.648-2.035-.433-.475-.958-.712-1.578-.712a1.94 1.94 0 0 0-1.092.306 2.23 2.23 0 0 0-.603.577v-.725h-.893v7.623h.919zm1.46-2.798c-.633 0-1.069-.282-1.307-.847-.126-.297-.19-.656-.19-1.078 0-.524.064-.956.19-1.297.235-.636.67-.954 1.307-.954.633 0 1.069.3 1.307.903.126.313.189.688.189 1.124 0 .714-.142 1.251-.427 1.61-.284.36-.64.539-1.07.539zm4.452.618v-3.145c0-.388.124-.731.373-1.03.248-.297.604-.446 1.067-.446a1.373 1.373 0 0 1 .301.026v-.97a12.197 12.197 0 0 0-.296-.026c-.364 0-.686.132-.965.396-.28.264-.455.487-.526.671v-.944h-.873V39.8h.919zm4.62.199c.903 0 1.568-.288 1.997-.863.429-.575.643-1.304.643-2.185 0-.912-.243-1.603-.73-2.073s-1.082-.705-1.787-.705c-.786 0-1.412.273-1.879.817-.466.545-.7 1.277-.7 2.196 0 .857.222 1.54.664 2.05.443.509 1.04.763 1.793.763zm.087-.791c-.554 0-.96-.194-1.215-.582-.255-.389-.383-.874-.383-1.456 0-.605.128-1.123.383-1.552.256-.429.664-.643 1.226-.643.633 0 1.079.252 1.337.756.164.32.245.735.245 1.245a3.44 3.44 0 0 1-.34 1.54c-.226.461-.643.692-1.253.692zm6.02.765c.742 0 1.322-.285 1.741-.857.419-.572.628-1.29.628-2.155 0-.912-.212-1.602-.636-2.07-.423-.468-.976-.702-1.656-.702-.327 0-.63.069-.91.206a2.061 2.061 0 0 0-.72.6v-2.72h-.893V39.8h.848v-.7c.194.262.376.453.546.572.286.201.637.301 1.052.301zm-.056-.811c-.66 0-1.112-.302-1.353-.904-.13-.32-.194-.737-.194-1.251 0-.711.157-1.222.472-1.532a1.52 1.52 0 0 1 1.1-.464c.48 0 .844.189 1.09.566.247.378.37.855.37 1.43 0 .647-.123 1.168-.37 1.562-.246.395-.618.593-1.115.593zm4.442.638v-7.5h-.92v7.5h.92zm3.512.194c.28 0 .53-.027.751-.082a2.138 2.138 0 0 0 1.036-.551c.167-.157.318-.359.452-.605.135-.247.214-.47.238-.672h-.904a1.6 1.6 0 0 1-.347.639c-.286.316-.669.474-1.149.474-.514 0-.893-.167-1.139-.503-.245-.335-.376-.78-.393-1.335h4.008c0-.551-.027-.953-.081-1.205a2.44 2.44 0 0 0-.368-.965c-.19-.289-.468-.525-.832-.707a2.494 2.494 0 0 0-1.129-.273c-.769 0-1.392.274-1.868.822-.477.548-.715 1.261-.715 2.14 0 .891.237 1.585.71 2.08.473.495 1.05.743 1.73.743zm1.609-3.365h-3.038c.017-.47.168-.857.454-1.161.286-.305.64-.457 1.062-.457.59 0 1.01.22 1.261.663.137.239.223.557.26.955zm2.992 3.17v-2.9c0-.704.142-1.19.426-1.46.284-.268.6-.403.947-.403.381 0 .642.128.781.383.089.17.133.44.133.812v3.569h.934V36.62c0-.565.13-.968.39-1.21.261-.242.572-.363.933-.363.262 0 .484.069.666.205.182.136.273.386.273.75v3.799h.955v-3.64c0-.484-.072-.868-.214-1.154-.266-.531-.766-.797-1.502-.797-.343 0-.653.07-.929.212a1.986 1.986 0 0 0-.72.651 1.681 1.681 0 0 0-.408-.541c-.266-.215-.616-.322-1.052-.322-.385 0-.728.104-1.031.312-.177.122-.375.318-.593.587v-.776h-.908V39.8h.919zm9.726.21c.756 0 1.318-.177 1.687-.53.37-.355.554-.775.554-1.262 0-.504-.178-.873-.536-1.108-.224-.15-.667-.305-1.327-.464l-.608-.149a2.132 2.132 0 0 1-.602-.224c-.235-.143-.353-.334-.353-.572 0-.218.09-.393.269-.526.178-.133.441-.199.788-.199.521 0 .887.12 1.098.362.13.17.203.36.22.567h.868a1.573 1.573 0 0 0-.332-.99c-.364-.484-.958-.725-1.782-.725-.63 0-1.131.16-1.504.48-.373.32-.559.738-.559 1.256 0 .439.198.782.592 1.031.222.143.565.272 1.032.388l.73.184c.391.099.653.185.786.26a.587.587 0 0 1 .312.536c0 .31-.13.539-.388.687a1.777 1.777 0 0 1-.9.222c-.57 0-.973-.148-1.204-.444-.126-.163-.203-.398-.23-.705h-.883c.024.545.205 1.002.544 1.371.338.37.914.554 1.728.554zm10.87-.21v-.867h-3.993c.089-.36.303-.69.644-.986a4.53 4.53 0 0 1 .786-.525l.7-.388c.616-.344 1.043-.637 1.28-.879.413-.415.619-.915.619-1.5 0-.556-.193-1.06-.58-1.512-.386-.453-.998-.679-1.835-.679-1.008 0-1.71.354-2.109 1.062-.225.402-.342.92-.352 1.557h.934c.014-.453.085-.807.215-1.062.241-.476.677-.715 1.307-.715.425 0 .765.125 1.02.376.256.25.384.588.384 1.013 0 .364-.14.688-.419.97-.177.18-.485.398-.924.654l-.98.566c-.657.382-1.099.805-1.325 1.272-.227.466-.357 1.014-.39 1.644H120zm3.293.2c.974 0 1.675-.466 2.104-1.399.296-.65.444-1.472.444-2.466 0-1.048-.163-1.874-.49-2.476-.422-.78-1.106-1.17-2.053-1.17-1.052 0-1.778.555-2.18 1.665-.214.596-.322 1.309-.322 2.14 0 1.071.18 1.926.537 2.562.428.763 1.082 1.144 1.96 1.144zm-.005-.837c-.592 0-1.01-.346-1.256-1.037-.16-.453-.24-1.052-.24-1.797 0-.99.125-1.74.375-2.25.25-.508.646-.762 1.187-.762.59 0 .986.268 1.19.804.204.536.306 1.22.306 2.05 0 1.15-.14 1.936-.423 2.359-.283.422-.662.633-1.139.633zm6.699.638v-7.28h-.725c-.13.564-.325.922-.587 1.074-.263.151-.725.26-1.39.324v.705h1.721V39.8h.98zm4.799.184c.936 0 1.618-.264 2.045-.792a2.82 2.82 0 0 0 .64-1.828c0-.663-.233-1.211-.699-1.644-.466-.432-1.035-.648-1.705-.648-.358 0-.672.056-.945.168a2.283 2.283 0 0 0-.485.291l.312-2.032h3.11v-.888h-3.8l-.556 3.937.796.045c.16-.217.354-.388.58-.51.226-.123.498-.184.814-.184.436 0 .81.14 1.121.419.311.279.467.674.467 1.184 0 .422-.13.807-.393 1.154-.262.347-.665.52-1.21.52-.286 0-.538-.05-.756-.152-.425-.201-.669-.564-.73-1.088h-.955c.055.695.311 1.21.769 1.545.458.335.984.503 1.58.503zm6.127-2.625v-.944h-2.563v.944h2.563zm3.308 2.64c.974 0 1.675-.466 2.104-1.399.296-.65.444-1.472.444-2.466 0-1.048-.163-1.874-.49-2.476-.422-.78-1.106-1.17-2.053-1.17-1.051 0-1.778.555-2.18 1.665-.214.596-.321 1.309-.321 2.14 0 1.071.178 1.926.536 2.562.429.763 1.082 1.144 1.96 1.144zm-.005-.837c-.592 0-1.01-.346-1.256-1.037-.16-.453-.24-1.052-.24-1.797 0-.99.125-1.74.376-2.25.25-.508.645-.762 1.187-.762.588 0 .985.268 1.19.804.203.536.306 1.22.306 2.05 0 1.15-.142 1.936-.424 2.359-.283.422-.662.633-1.139.633zm5.642.842c1.065 0 1.821-.575 2.267-1.726.269-.69.403-1.484.403-2.379 0-.793-.112-1.453-.337-1.98-.405-.96-1.14-1.44-2.205-1.44-.79 0-1.387.251-1.792.755a2.714 2.714 0 0 0-.608 1.751c0 .691.205 1.256.615 1.695.41.44.968.659 1.672.659.348 0 .672-.066.973-.197.301-.13.554-.358.758-.681-.13 1.12-.349 1.862-.658 2.228-.31.366-.685.55-1.124.55a1.3 1.3 0 0 1-.633-.154c-.364-.194-.56-.545-.587-1.052h-.93c0 .565.186 1.035.557 1.41.371.374.914.561 1.629.561zm.138-3.472c-.507 0-.877-.14-1.108-.421-.232-.28-.347-.66-.347-1.136 0-.504.132-.906.395-1.208.264-.3.62-.451 1.07-.451.419 0 .763.132 1.034.395.27.264.406.665.406 1.203 0 .599-.15 1.018-.452 1.258-.301.24-.634.36-.998.36zm6.03.827v-.944h-2.563v.944h2.563zm3.308 2.64c.974 0 1.675-.466 2.104-1.399.296-.65.444-1.472.444-2.466 0-1.048-.164-1.874-.49-2.476-.422-.78-1.106-1.17-2.053-1.17-1.052 0-1.778.555-2.18 1.665-.214.596-.322 1.309-.322 2.14 0 1.071.18 1.926.537 2.562.428.763 1.082 1.144 1.96 1.144zm-.005-.837c-.592 0-1.01-.346-1.256-1.037-.16-.453-.24-1.052-.24-1.797 0-.99.125-1.74.375-2.25.25-.508.646-.762 1.187-.762.59 0 .986.268 1.19.804.204.536.306 1.22.306 2.05 0 1.15-.14 1.936-.423 2.359-.283.422-.662.633-1.139.633zm8.343.638v-.868h-3.993c.089-.36.303-.69.643-.986a4.53 4.53 0 0 1 .787-.525l.7-.388c.615-.344 1.042-.637 1.28-.879.413-.415.618-.915.618-1.5 0-.556-.193-1.06-.579-1.512-.386-.453-.998-.679-1.836-.679-1.007 0-1.71.354-2.108 1.062-.225.402-.342.92-.352 1.557h.934c.013-.453.085-.807.214-1.062.242-.476.678-.715 1.307-.715.426 0 .766.125 1.022.376.255.25.382.588.382 1.013 0 .364-.14.688-.418.97-.177.18-.485.398-.924.654l-.98.566c-.658.382-1.1.805-1.326 1.272-.226.466-.356 1.014-.39 1.644h5.019z" fill-opacity=".65" fill="#000" fill-rule="nonzero"/><circle cx="2.988" cy="2.988" r="2.988" transform="translate(1 33.598)" fill="#FFF" stroke="#699937" stroke-width="1.494"/><path d="M16.774 8.626c1.011 0 1.815-.322 2.41-.965.497-.535.79-1.197.878-1.987h-.99c-.102.494-.257.892-.465 1.195-.391.575-.961.863-1.71.863-.814 0-1.425-.273-1.836-.82-.41-.546-.615-1.258-.615-2.136 0-1.072.227-1.868.682-2.387.454-.52 1.05-.779 1.79-.779.605 0 1.076.142 1.411.424.335.283.56.666.671 1.149h.99c-.057-.637-.348-1.205-.872-1.705s-1.261-.75-2.21-.75c-1.114 0-1.987.384-2.62 1.153-.586.708-.878 1.615-.878 2.721 0 1.457.39 2.534 1.169 3.232.592.528 1.324.792 2.195.792zm5.346-.194V5.286c0-.388.124-.73.373-1.028.248-.298.604-.447 1.067-.447a1.373 1.373 0 0 1 .301.026v-.97a12.197 12.197 0 0 0-.296-.026c-.364 0-.686.132-.965.396-.28.263-.454.487-.526.67v-.944h-.873v5.469h.919zm4.672.194c.279 0 .529-.028.75-.082.412-.095.758-.28 1.037-.552.166-.156.317-.358.452-.605.134-.246.213-.47.237-.671h-.904a1.6 1.6 0 0 1-.347.638c-.286.317-.669.475-1.149.475-.514 0-.893-.168-1.138-.503-.245-.335-.376-.78-.393-1.335h4.008c0-.551-.028-.953-.082-1.205a2.44 2.44 0 0 0-.368-.965c-.19-.29-.468-.525-.832-.707a2.494 2.494 0 0 0-1.128-.273c-.77 0-1.392.274-1.869.822-.477.548-.715 1.26-.715 2.14 0 .89.237 1.584.71 2.08.473.495 1.05.743 1.73.743zM28.4 5.26h-3.038c.017-.47.169-.857.455-1.162.285-.304.64-.457 1.062-.457.588 0 1.009.222 1.26.664.137.238.224.557.261.955zm3.543 3.354c.422 0 .809-.09 1.16-.27.35-.18.619-.393.806-.638a1.3 1.3 0 0 0 .158.505c.143.225.373.337.69.337.129 0 .231-.005.306-.015a2.56 2.56 0 0 0 .327-.077v-.679a2.207 2.207 0 0 1-.302.03c-.126 0-.208-.028-.247-.086a.403.403 0 0 1-.059-.23v-3.15c0-.517-.199-.899-.597-1.144-.402-.245-.924-.367-1.568-.367-.555 0-1.042.132-1.462.395-.42.264-.64.733-.657 1.407h.858c.034-.283.107-.495.22-.638.2-.259.54-.388 1.02-.388.416 0 .735.07.958.212.223.14.335.368.335.681a.79.79 0 0 1-.062.352c-.071.15-.212.239-.423.266l-1.466.184c-.514.064-.929.236-1.246.515-.316.28-.474.673-.474 1.18 0 .463.16.848.482 1.156.322.308.736.462 1.243.462zm.215-.78c-.266 0-.495-.077-.69-.23a.757.757 0 0 1-.29-.629c0-.35.14-.605.423-.765.167-.096.417-.166.75-.21l.557-.071c.17-.02.344-.055.521-.102.177-.048.322-.108.434-.18v.741c0 .565-.255.972-.766 1.22-.303.15-.616.225-.94.225zm5.417.683c.133 0 .256-.006.37-.02a2.19 2.19 0 0 0 .33-.066v-.725a2.743 2.743 0 0 1-.322.015c-.167 0-.286-.019-.358-.056-.129-.065-.194-.193-.194-.383v-3.57h.873v-.75h-.873V1.437h-.929v1.526h-.74v.75h.74v3.62c0 .351.077.636.23.856.153.22.444.33.873.33zm3.753.108c.279 0 .529-.028.75-.082.412-.095.757-.28 1.037-.552a2.38 2.38 0 0 0 .451-.605 1.89 1.89 0 0 0 .238-.671H42.9a1.6 1.6 0 0 1-.347.638c-.286.317-.669.475-1.149.475-.514 0-.893-.168-1.138-.503-.245-.335-.377-.78-.394-1.335h4.008c0-.551-.027-.953-.081-1.205a2.44 2.44 0 0 0-.368-.965c-.19-.29-.468-.525-.832-.707a2.494 2.494 0 0 0-1.128-.273c-.77 0-1.393.274-1.87.822-.476.548-.714 1.26-.714 2.14 0 .89.237 1.584.71 2.08.473.495 1.05.743 1.73.743zm1.608-3.365h-3.038c.017-.47.168-.857.454-1.162a1.4 1.4 0 0 1 1.062-.457c.59 0 1.01.222 1.261.664.137.238.223.557.26.955zm6.448 3.354c.422 0 .809-.09 1.16-.27.35-.18.619-.393.806-.638a1.3 1.3 0 0 0 .158.505c.143.225.373.337.69.337.129 0 .231-.005.306-.015a2.56 2.56 0 0 0 .327-.077v-.679a2.207 2.207 0 0 1-.302.03c-.126 0-.208-.028-.247-.086a.403.403 0 0 1-.059-.23v-3.15c0-.517-.199-.899-.597-1.144-.402-.245-.924-.367-1.568-.367-.555 0-1.042.132-1.462.395-.42.264-.64.733-.657 1.407h.858c.034-.283.107-.495.22-.638.2-.259.54-.388 1.02-.388.416 0 .735.07.958.212.223.14.335.368.335.681a.79.79 0 0 1-.062.352c-.071.15-.212.239-.423.266l-1.466.184c-.514.064-.929.236-1.246.515-.316.28-.474.673-.474 1.18 0 .463.16.848.482 1.156.322.308.736.462 1.243.462zm.215-.78c-.266 0-.495-.077-.69-.23a.757.757 0 0 1-.29-.629c0-.35.14-.605.423-.765.167-.096.417-.166.75-.21l.557-.071c.17-.02.344-.055.521-.102.177-.048.322-.108.434-.18v.741c0 .565-.255.972-.766 1.22-.303.15-.616.225-.94.225zm8.97.806c.756 0 1.319-.177 1.688-.531.37-.354.554-.774.554-1.261 0-.504-.179-.873-.536-1.108-.225-.15-.667-.305-1.328-.465l-.607-.148a2.16 2.16 0 0 1-.603-.224c-.235-.143-.352-.334-.352-.572 0-.218.09-.393.268-.526.179-.133.442-.2.789-.2.52 0 .886.122 1.098.363.129.17.202.36.22.567h.867a1.573 1.573 0 0 0-.332-.99c-.364-.484-.958-.726-1.782-.726-.63 0-1.13.16-1.503.48-.373.32-.56.739-.56 1.256 0 .44.198.783.593 1.032.221.143.565.272 1.031.388l.73.184c.392.098.654.185.787.26a.587.587 0 0 1 .311.536c0 .31-.13.539-.388.687a1.777 1.777 0 0 1-.899.222c-.571 0-.973-.148-1.205-.444-.125-.164-.202-.399-.23-.705h-.883c.024.545.206 1.002.544 1.37.339.37.915.555 1.728.555zm5.428-.015c.279 0 .53-.028.75-.082.412-.095.758-.28 1.037-.552.167-.156.317-.358.452-.605.134-.246.213-.47.237-.671h-.904a1.6 1.6 0 0 1-.347.638c-.286.317-.669.475-1.149.475-.514 0-.893-.168-1.138-.503-.245-.335-.376-.78-.393-1.335h4.008c0-.551-.028-.953-.082-1.205a2.44 2.44 0 0 0-.368-.965c-.19-.29-.468-.525-.832-.707a2.494 2.494 0 0 0-1.128-.273c-.77 0-1.392.274-1.869.822-.476.548-.715 1.26-.715 2.14 0 .89.237 1.584.71 2.08.473.495 1.05.743 1.73.743zm1.608-3.365h-3.038c.017-.47.169-.857.455-1.162a1.4 1.4 0 0 1 1.062-.457c.588 0 1.009.222 1.26.664.137.238.224.557.261.955zm3.018 3.17V5.287c0-.388.124-.73.372-1.028.249-.298.604-.447 1.067-.447a1.373 1.373 0 0 1 .301.026v-.97a12.197 12.197 0 0 0-.296-.026c-.364 0-.685.132-.965.396-.279.263-.454.487-.525.67v-.944h-.873v5.469h.919zm4.916 0l2.063-5.468h-1.006L73.07 7.416l-1.46-4.453h-1.068l2.017 5.469h.98zm3.784-6.458V.93h-.935v1.042h.935zm0 6.459V2.989h-.935v5.443h.935zm3.364.158c.637 0 1.16-.168 1.568-.503.408-.335.663-.866.766-1.59h-.894c-.085.405-.24.724-.462.957-.223.233-.525.35-.906.35-.497 0-.861-.188-1.093-.562-.231-.375-.347-.836-.347-1.384 0-.544.082-1.002.245-1.373.252-.572.67-.858 1.256-.858.429 0 .74.112.934.335.194.222.319.502.373.84h.894c-.079-.732-.311-1.248-.697-1.548-.387-.3-.888-.449-1.504-.449-.722 0-1.316.267-1.782.802-.466.534-.7 1.281-.7 2.241 0 .783.213 1.436.639 1.958.425.523.995.784 1.71.784zm5.387.036c.279 0 .529-.028.75-.082.412-.095.758-.28 1.037-.552.167-.156.317-.358.452-.605.134-.246.213-.47.237-.671h-.904a1.6 1.6 0 0 1-.347.638c-.286.317-.669.475-1.149.475-.514 0-.893-.168-1.138-.503-.245-.335-.376-.78-.393-1.335h4.008c0-.551-.028-.953-.082-1.205a2.44 2.44 0 0 0-.368-.965c-.19-.29-.468-.525-.832-.707a2.494 2.494 0 0 0-1.128-.273c-.77 0-1.392.274-1.869.822-.477.548-.715 1.26-.715 2.14 0 .89.237 1.584.71 2.08.473.495 1.05.743 1.73.743zm1.608-3.365h-3.038c.017-.47.169-.857.455-1.162.285-.304.64-.457 1.062-.457.588 0 1.009.222 1.26.664.137.238.224.557.261.955zm4.008 3.38c.756 0 1.318-.177 1.687-.531.37-.354.554-.774.554-1.261 0-.504-.178-.873-.536-1.108-.224-.15-.667-.305-1.327-.465l-.608-.148a2.163 2.163 0 0 1-.602-.224c-.235-.143-.353-.334-.353-.572 0-.218.09-.393.269-.526.178-.133.441-.2.788-.2.521 0 .887.122 1.098.363.13.17.203.36.22.567h.868a1.573 1.573 0 0 0-.332-.99c-.364-.484-.958-.726-1.782-.726-.63 0-1.131.16-1.504.48-.373.32-.559.739-.559 1.256 0 .44.198.783.592 1.032.222.143.565.272 1.032.388l.73.184c.391.098.653.185.786.26a.587.587 0 0 1 .312.536c0 .31-.13.539-.388.687a1.777 1.777 0 0 1-.9.222c-.57 0-.973-.148-1.204-.444-.126-.164-.203-.399-.23-.705h-.883c.024.545.205 1.002.544 1.37.338.37.914.555 1.728.555zm8.133 0c.756 0 1.318-.177 1.688-.531.37-.354.554-.774.554-1.261 0-.504-.179-.873-.536-1.108-.225-.15-.668-.305-1.328-.465l-.607-.148a2.16 2.16 0 0 1-.603-.224c-.235-.143-.352-.334-.352-.572 0-.218.09-.393.268-.526.179-.133.442-.2.789-.2.52 0 .886.122 1.097.363.13.17.203.36.22.567h.868a1.573 1.573 0 0 0-.332-.99c-.364-.484-.958-.726-1.782-.726-.63 0-1.13.16-1.503.48-.373.32-.56.739-.56 1.256 0 .44.198.783.593 1.032.221.143.565.272 1.031.388l.73.184c.392.098.654.185.786.26a.587.587 0 0 1 .312.536c0 .31-.13.539-.388.687a1.777 1.777 0 0 1-.899.222c-.572 0-.973-.148-1.205-.444-.126-.164-.202-.399-.23-.705h-.883c.024.545.205 1.002.544 1.37.339.37.915.555 1.728.555zm4.228-6.668V.93h-.934v1.042h.934zm0 6.459V2.989h-.934v5.443h.934zm2.675.086c.133 0 .256-.006.37-.02a2.19 2.19 0 0 0 .33-.066v-.725a2.743 2.743 0 0 1-.322.015c-.167 0-.286-.019-.357-.056-.13-.065-.194-.193-.194-.383v-3.57h.873v-.75h-.873V1.437h-.93v1.526h-.74v.75h.74v3.62c0 .351.077.636.23.856.153.22.444.33.873.33zm3.753.108c.279 0 .53-.028.75-.082.412-.095.758-.28 1.037-.552.167-.156.317-.358.452-.605.134-.246.213-.47.237-.671h-.904a1.6 1.6 0 0 1-.347.638c-.286.317-.669.475-1.149.475-.513 0-.893-.168-1.138-.503-.245-.335-.376-.78-.393-1.335h4.008c0-.551-.027-.953-.082-1.205a2.44 2.44 0 0 0-.368-.965c-.19-.29-.468-.525-.832-.707a2.494 2.494 0 0 0-1.128-.273c-.77 0-1.392.274-1.869.822-.476.548-.715 1.26-.715 2.14 0 .89.237 1.584.71 2.08.473.495 1.05.743 1.73.743zm1.608-3.365h-3.038c.017-.47.169-.857.455-1.162a1.4 1.4 0 0 1 1.062-.457c.589 0 1.009.222 1.26.664.137.238.224.557.261.955zm9.65 3.17v-.867h-3.993c.089-.361.303-.69.644-.986a4.53 4.53 0 0 1 .786-.526l.7-.388c.615-.344 1.043-.636 1.28-.878.413-.415.619-.916.619-1.501 0-.555-.194-1.059-.58-1.511-.386-.453-.998-.68-1.835-.68-1.008 0-1.71.355-2.109 1.063-.225.401-.342.92-.352 1.557h.934c.014-.453.085-.807.215-1.062.241-.477.677-.715 1.307-.715.425 0 .765.125 1.02.375.256.25.384.588.384 1.014 0 .364-.14.687-.419.97-.177.18-.485.398-.924.653l-.98.567c-.657.381-1.099.805-1.325 1.272-.227.466-.357 1.014-.391 1.644h5.019zm3.293.2c.974 0 1.675-.467 2.104-1.4.296-.65.444-1.471.444-2.465 0-1.049-.164-1.874-.49-2.477-.422-.78-1.107-1.169-2.053-1.169-1.052 0-1.778.555-2.18 1.665-.214.595-.322 1.308-.322 2.139 0 1.072.18 1.926.537 2.563.428.762 1.082 1.144 1.96 1.144zm-.005-.838c-.592 0-1.01-.345-1.256-1.036-.16-.453-.24-1.052-.24-1.797 0-.99.125-1.74.375-2.25.25-.508.646-.763 1.187-.763.59 0 .986.268 1.19.804.204.537.306 1.22.306 2.05 0 1.15-.14 1.937-.423 2.36-.283.421-.662.632-1.139.632zm6.699.639V1.15h-.725c-.13.565-.325.923-.588 1.075-.262.151-.725.26-1.388.324v.704h1.72v5.178h.98zm4.799.183c.936 0 1.618-.263 2.045-.791.427-.528.64-1.137.64-1.828 0-.664-.233-1.212-.699-1.644-.466-.432-1.035-.648-1.705-.648-.358 0-.672.056-.945.168a2.283 2.283 0 0 0-.485.291l.312-2.032h3.109v-.888h-3.799l-.556 3.936.796.046a1.73 1.73 0 0 1 .58-.51c.226-.123.498-.184.814-.184.436 0 .81.14 1.12.418.312.28.468.674.468 1.185 0 .422-.131.807-.393 1.154-.262.347-.666.52-1.21.52a1.75 1.75 0 0 1-.756-.153c-.425-.2-.669-.563-.73-1.087h-.955c.055.694.31 1.21.769 1.544.458.336.984.503 1.58.503zm6.127-2.624v-.945h-2.563v.945h2.563zm3.308 2.64c.974 0 1.675-.467 2.104-1.4.296-.65.444-1.471.444-2.465 0-1.049-.163-1.874-.49-2.477-.422-.78-1.106-1.169-2.053-1.169-1.051 0-1.778.555-2.18 1.665-.214.595-.321 1.308-.321 2.139 0 1.072.178 1.926.536 2.563.429.762 1.082 1.144 1.96 1.144zm-.005-.838c-.592 0-1.01-.345-1.256-1.036-.16-.453-.24-1.052-.24-1.797 0-.99.125-1.74.375-2.25.25-.508.646-.763 1.188-.763.588 0 .985.268 1.19.804.203.537.305 1.22.305 2.05 0 1.15-.14 1.937-.423 2.36-.283.421-.662.632-1.139.632zm5.642.843c1.065 0 1.821-.575 2.267-1.726.269-.69.403-1.484.403-2.38 0-.792-.112-1.453-.337-1.98-.405-.96-1.14-1.44-2.205-1.44-.79 0-1.387.252-1.793.756a2.714 2.714 0 0 0-.607 1.75c0 .692.205 1.257.615 1.696.41.44.968.659 1.672.659.347 0 .672-.066.973-.197.301-.131.554-.358.758-.682-.13 1.12-.349 1.863-.659 2.229-.31.366-.684.549-1.123.549a1.3 1.3 0 0 1-.633-.153c-.364-.194-.56-.545-.587-1.052h-.93c0 .565.186 1.035.557 1.41.371.374.914.56 1.629.56zm.138-3.472c-.507 0-.877-.14-1.108-.421-.232-.281-.347-.66-.347-1.136 0-.504.132-.907.395-1.208.264-.301.62-.452 1.07-.452.419 0 .763.132 1.034.396.27.264.406.665.406 1.202 0 .6-.15 1.019-.452 1.259-.301.24-.634.36-.998.36zm6.03.827v-.945H155.2v.945h2.563zm3.308 2.64c.974 0 1.675-.467 2.104-1.4.296-.65.444-1.471.444-2.465 0-1.049-.164-1.874-.49-2.477-.422-.78-1.107-1.169-2.053-1.169-1.052 0-1.778.555-2.18 1.665-.214.595-.322 1.308-.322 2.139 0 1.072.18 1.926.536 2.563.43.762 1.083 1.144 1.961 1.144zm-.005-.838c-.592 0-1.011-.345-1.256-1.036-.16-.453-.24-1.052-.24-1.797 0-.99.125-1.74.375-2.25.25-.508.646-.763 1.187-.763.59 0 .986.268 1.19.804.204.537.306 1.22.306 2.05 0 1.15-.141 1.937-.423 2.36-.283.421-.663.632-1.139.632zm6.699.639V1.15h-.725c-.13.565-.325.923-.588 1.075-.262.151-.725.26-1.388.324v.704h1.72v5.178h.98z" fill-opacity=".65" fill="#000" fill-rule="nonzero"/><circle cx="2.988" cy="2.988" r="2.988" transform="translate(1 2.228)" fill="#FFF" stroke="#699937" stroke-width="1.494"/></g></svg>