<?xml version="1.0" encoding="UTF-8"?>
<svg width="114px" height="60px" viewBox="0 0 114 60" version="1.1" xmlns="http://www.w3.org/2000/svg" xmlns:xlink="http://www.w3.org/1999/xlink">
    <title>Tooltp</title>
    <defs>
        <path d="M100.008247,0 C101.108262,0 102,0.891941149 102,1.9999204 L102,32.0000796 C102,33.1046051 101.102691,34 100.008247,34 L55.168,33.999 L51,39 L46.832,33.999 L1.99175337,34 C0.89173836,34 0,33.1080589 0,32.0000796 L0,1.9999204 C0,0.895394863 0.897309287,0 1.99175337,0 L100.008247,0 Z" id="path-1"></path>
        <filter x="-6.4%" y="-14.1%" width="112.7%" height="133.3%" filterUnits="objectBoundingBox" id="filter-2">
            <feOffset dx="0" dy="1" in="SourceAlpha" result="shadowOffsetOuter1"></feOffset>
            <feGaussianBlur stdDeviation="2" in="shadowOffsetOuter1" result="shadowBlurOuter1"></feGaussianBlur>
            <feColorMatrix values="0 0 0 0 0   0 0 0 0 0   0 0 0 0 0  0 0 0 0.2 0" type="matrix" in="shadowBlurOuter1"></feColorMatrix>
        </filter>
    </defs>
    <g id="页面-1" stroke="none" stroke-width="1" fill="none" fill-rule="evenodd">
        <g id="Tooltip" transform="translate(-289.000000, -14.000000)">
            <g id="Tooltp" transform="translate(289.000000, 17.000000)">
                <text id="||||||||||||||||||||" opacity="0.8" font-family="PingFangSC-Semibold, PingFang SC" font-size="10" font-weight="500" fill="#314659">
                    <tspan x="0" y="54">|||||||||||||||||||||||||||||||||||||||||||||||||||||</tspan>
                </text>
                <g id="文字提示" transform="translate(6.000000, 0.000000)">
                    <g id="Group">
                        <g id="Rectangle-1-Copy-3" transform="translate(51.000000, 19.500000) scale(-1, 1) translate(-51.000000, -19.500000) ">
                            <use fill="black" fill-opacity="1" filter="url(#filter-2)" xlink:href="#path-1"></use>
                            <use fill="#595959" fill-rule="evenodd" xlink:href="#path-1"></use>
                        </g>
                    </g>
                </g>
                <text id="||||||||||||||||||||" font-family="PingFangSC-Regular, PingFang SC" font-size="12" font-weight="normal" fill="#FFFFFF">
                    <tspan x="16.05" y="21">|||||||||||||||||||||||||||||||||||</tspan>
                </text>
            </g>
        </g>
    </g>
</svg>