<?xml version="1.0" ?><!DOCTYPE svg  PUBLIC '-//W3C//DTD SVG 1.1//EN'  'http://www.w3.org/Graphics/SVG/1.1/DTD/svg11.dtd'><svg enable-background="new 0.5 0.5 96 96" height="96px" id="trash" version="1.1" viewBox="0.5 0.5 96 96" width="96px" xml:space="preserve" xmlns="http://www.w3.org/2000/svg" xmlns:xlink="http://www.w3.org/1999/xlink"><path d="M84.5,20.5h-16v-4c0-6.63-5.37-12-12-12h-16c-6.63,0-12,5.37-12,12v4h-16c-2.209,0-4,1.791-4,4s1.791,4,4,4h4v48  c0,6.63,5.37,12,12,12h40c6.63,0,12-5.37,12-12v-48h4c2.209,0,4-1.791,4-4S86.709,20.5,84.5,20.5z M36.5,16.5c0-2.21,1.79-4,4-4h16  c2.21,0,4,1.79,4,4v4h-24V16.5z M72.5,76.5c0,2.21-1.79,4-4,4h-40c-2.21,0-4-1.79-4-4v-48h48V76.5z"/></svg>